<?xml version="1.0" standalone="no"?>
<!DOCTYPE svg PUBLIC "-//W3C//DTD SVG 1.1//EN" "http://www.w3.org/Graphics/SVG/1.1/DTD/svg11.dtd" >
<svg xmlns="http://www.w3.org/2000/svg">
<metadata>Generated by IcoMoon</metadata>
<defs>
<font id="sec_icon" horiz-adv-x="1024">
<font-face units-per-em="1024" ascent="960" descent="-64" />
<missing-glyph horiz-adv-x="1024" />
<glyph unicode="&#x20;" horiz-adv-x="512" d="" />
<glyph unicode="&#xe900;" glyph-name="xingye" horiz-adv-x="1536" d="M1535.867 476.040c0 196.893-266.834 356.508-595.949 356.508-263.449 0-486.97-102.408-565.569-244.182v0.132c-7.296-13.198-11.343-27.526-11.343-42.516 0-35.35 22.286-66.824 57.106-87.351l302.12-174.407c15.654-8.556 34.292-13.563 54.388-13.563 20.163 0 38.8 5.007 54.455 13.497l286.532 165.552c19.368 11.175 31.639 28.686 31.639 48.219 0 18.969-11.607 35.816-29.913 47.092l-106.522 61.586-236.19-136.302-178.618 103.238c68.981 62.181 197.589 104.032 344.901 104.032 220.206 0 398.758-93.52 398.758-208.929-4.71-178.651-266.701-316.91-585.004-308.654-318.435 8.424-572.667 160.214-568.024 338.832h-0.066c2.254 235.594 311.139 423.663 689.733 419.982 33.826-0.364 66.856-2.157 99.157-5.406-77.668 28.653-174.705 45.664-280.296 45.664-84.301 0-163.297-10.944-231.217-29.845-273.993-75.214-465.944-249.819-465.944-453.18 0-272.304 343.839-493.107 768-493.107s768 220.803 768 493.107h-0.133z" />
<glyph unicode="&#xe901;" glyph-name="zheshan" d="M465.616 515.086l-210.596 201.493 81.192 84.445 210.53-201.422-81.126-84.516zM484.318 283.877l-79.001-82.311 63.814-61.075-12.798-13.366-255.573 244.443 12.864 13.364 66.137-63.322 79.001 82.398-210.662 201.357-78.453-81.707 81.481-78.008-86.64-90.148 371.775-355.643 86.688 90.21 81.546-78.069 78.521 81.855-198.702 190.022zM559.611 612.913l74.805 77.931-66.153 63.188 12.798 13.382 255.494-244.437-12.78-13.382-63.884 61.058-74.808-77.799 198.778-190.040 77.086 80.273-81.485 77.93 78.118 81.366-371.91 355.652-78.046-81.297-81.546 77.863-77.069-80.129 210.602-201.56zM371.626 417.251l81.125 84.585-210.659 201.428-81.066-84.525 210.601-201.488zM672.363 479.551l-81.257-84.453 198.702-190.11 81.197 84.526-198.642 190.037zM578.308 381.714l-81.193-84.515 198.706-190.047 81.189 84.524-198.702 190.038z" />
<glyph unicode="&#xe902;" glyph-name="shundens" d="M877.343 960h-730.685c-80.663 0-146.133-65.47-146.133-146.135v-730.683c0-80.665 65.47-146.135 146.135-146.135h730.683c80.665 0 146.135 65.468 146.135 146.135v730.683c-0.002 80.665-65.47 146.135-146.135 146.135zM511.095 94.925c-108.392 0-205.375 48.787-270.238 125.583 11.766 21.133 81.703 127.853 239.626 10.154 0 0 116.771-68.362 187.49-13.623 0 0-101.968 0.465-192.424 104.079 0 0-137.103 147.098-279.058-34.163-15.086 29.313-26.173 61.014-32.592 94.376 35.815 43.876 209.992 177.756 353.421 25.442 136.829-145.304 296.391-78.197 332.44-60.162-43.756-145.603-178.811-251.687-338.665-251.687zM773.376 448.524c-131.572-86.385-213.805-18.872-330.576 82.522-116.769 101.396-275.599 0-275.601 0 37.175 155.478 177.025 271.077 343.894 271.077 112.044 0 211.898-52.124 276.685-133.433-9.923-18.469-80.472-133.634-241.365-13.724 0 0-116.771 68.362-187.49 13.623 0 0 101.968-0.465 192.424-104.079 0 0 136.968-149.428 279.503 35.115 13.908-29.377 23.88-60.975 29.25-94.12-11.598-7.639-36.491-24.003-86.723-56.982z" />
<glyph unicode="&#xe903;" glyph-name="fudian" d="M1023.653 959.655v-1023.308c-258.131 0-513.198 170.191-513.198 170.191 36.028 29.43 64.347 64.218 97.197 122.261 0 0 157.103-177.244 281.481-166.372v756.45c-109.989-1.326-153.551-40.294-221.599-115.681-29.226-32.378-72.88-108.005-53.077-146.851 159.231-230.062 185.089 1.3 17.692-230.062-45.583-63.002-66.033-85.012-120.149-141.677-145.236-152.075-383.964-247.553-511.653-247.553 0 289.119 0 733.481 0 1022.601 306.19 0 363.31-31.587 511.653-168.065-57.177-49.029-70.602-86.854-73.106-115.663-89.429 97.936-202.025 151.767-286.363 148.796 0-250.045 0-491.2 0-712.036 242.6 71.921 276.332 207.046 257.33 238.294-169.665 184.57-186.904 15.597-12.702 174.171 60.802 55.348 62.292 116.535 114.842 188.468 131.037 179.369 166.419 246.032 511.654 246.035z" />
<glyph unicode="&#xe904;" glyph-name="pufa" horiz-adv-x="1186" d="M469.145 635.094c-110.975 219.49-391.726 185.946-453.383-0.853 0 0-8.557-60.552-15.321-123.616l-0.040-382.779 180.346-169.761 0.041 467.287c0 0.001 19.574 223.33 288.356 209.723zM204.611 278.732c0 0 296.032-40.936 306.249 262.593-4.722 284.921 360.203 303.841 459.364 98.9 0 0-258.59-3.372-285.798-218.307 0 0 3.391-265.148-200.738-292.38-0.041-0.017-221.224-38.382-279.077 149.194zM716.537 282.228c111.010-219.57 386.679-183.433 448.27 3.409 0 0 18.738 42.742 20.451 121.063l0.024 382.756-180.328 169.725-0.040-467.207c0-0.024-19.592-223.393-288.376-209.745z" />
<glyph unicode="&#xe905;" glyph-name="zgjians" horiz-adv-x="975" d="M604.915 865.786l274.2-278.742 95.989 95.911-179.741 188.845c-57.877 51.85-108.13 70.13-108.13 70.13-149.33 48.649-236.093-18.279-236.093-18.279 108.087-1.561 153.776-57.865 153.776-57.865zM743.575 421.015c-33.541 4.44-39.632-13.75-39.632-13.75l-211.758-213.207c-15.191-21.403-31.981 5.928-31.981 5.928l-204.119 204.234c-16.717 9.136-3.004 30.462-3.004 30.462l208.684 213.207c13.703 21.401 31.975-2.963 31.975-2.963l207.159-202.592c15.227-24.447 33.547 1.562 33.547 1.562l112.731 109.565-313.798 315.371c-132.534 91.377-298.571-32.022-298.571-32.022-226.956-132.457-234.65-382.3-234.65-382.3-3.010-373.229 284.939-473.742 284.939-473.742 298.54-134.103 516.35 83.795 516.35 83.795 167.603 136.986 158.43 356.452 158.43 356.452h-216.301z" />
<glyph unicode="&#xe906;" glyph-name="zgzhaos" d="M469.645 241.084l138.809 350.462 144.664-350.462h-283.473zM179.057 241.084l138.816 350.462 144.719-350.462h-283.535zM900.15 321.031h108.328l-5.938-20.008h-93.014l-9.376 20.008zM879.038 370.432h138.815l-3.598-21.266h-125.819l-9.398 21.266zM857.781 419.826h165.872l-2.345-21.255h-154.062l-9.465 21.255zM837.784 469.222h185.869v-21.106h-177.586l-8.284 21.106zM816.677 518.607h202.291l2.338-21.178h-196.497l-8.132 21.178zM795.415 568.018h214.155l4.685-21.182h-209.392l-9.448 21.182zM511.991 959.653h21.107l22.51-2.306 21.107-1.175 19.936-3.509 21.186-3.52 20.003-4.734 40.023-11.72 9.377-3.521 9.464-3.598 18.834-8.166 18.751-8.282 17.68-9.386 17.58-9.414 17.731-10.578 16.505-11.775 16.417-11.768 15.245-11.754 15.315-12.934 15.319-14.108 14.082-14.109 14.127-14.192 12.98-15.312 5.866-8.161 5.793-8.182 12.968-16.566 10.628-16.403 10.628-16.577 10.479-17.58 8.284-18.848 9.458-17.652 7.029-18.771 7.052-19.991 7.098-18.844h-218.865l-135.216 316.458-141.16-356.467-148.264 352.919-261.113-674.071 118.84-148.191h604.592l110.523 161.247-10.477 24.699h71.691l-7.124-18.832-8.211-17.668-8.194-17.579-8.3-16.494-10.473-17.661-9.465-16.41-11.715-15.407-10.7-15.156-11.66-15.406-12.974-15.308-12.901-12.978-14.138-14.076-14.149-12.967-14.149-12.822-15.24-11.887-15.313-11.641-15.324-10.556-16.417-10.627-16.405-9.368-17.682-9.546-17.657-8.111-17.658-7.202-18.766-7.028-17.658-7.030-18.839-5.859-20.009-4.785-18.828-4.685-20.026-3.431-9.382-1.265-10.628-1.159-20.014-2.266-20.009-1.254h-46.975l-25.869 2.417-25.943 3.526-25.874 4.685-24.666 5.937-23.495 5.777-23.559 8.288-23.568 9.391-22.349 10.554-22.288 10.7-10.628 7.030-10.54 5.794-21.235 12.966-20.035 14.159-19.932 15.24-9.392 8.282-8.226 8.194-9.392 8.21-8.194 8.289-17.714 17.656-16.534 18.761-6.957 9.451-7.102 10.629-15.252 19.935-5.898 9.375-7.074 10.633-5.855 10.633-5.903 11.714-11.765 21.106-10.597 23.605-8.2 22.28-8.244 24.77-7.041 23.455-3.587 12.962-2.308 11.728-2.344 12.967-2.358 12.985-3.548 24.697-1.175 27.032-1.131 12.979v12.971l1.131 25.789 1.175 25.95 3.548 25.873 4.702 25.866 5.894 24.71 7.041 23.522 8.244 23.444 8.2 23.523 10.595 22.354 11.765 22.43 5.903 10.55 5.855 10.549 12.972 21.19 15.252 20.002 14.059 19.936 8.323 9.457 8.211 8.249 8.25 9.364 9.465 8.282 17.586 17.631 17.618 16.486 10.628 7.074 9.304 7.041 20.035 15.283 10.645 5.854 10.59 7.079 10.54 5.937 10.628 5.853 22.288 11.731 22.349 10.589 23.568 9.456 23.559 7.030 23.49 7.079 12.896 3.509 11.776 2.356 12.974 2.295 12.9 2.384 25.937 3.519 25.875 1.215 12.896 1.091 12.977 0.007z" />
<glyph unicode="&#xe907;" glyph-name="hebei" d="M416.34 486.797h1.395l294.562-2.768v-210.713l-295.957-80.629zM712.296 484.029l1.39-0.041 236.271-2.186v-143.814l-237.661-64.672zM718.201 521.853h236.531v61.166l-236.531 87.474zM417.947 733.46v-211.607h300.253v148.64l-250.161 92.613c-20.711 7.668-50.093-7.613-50.093-29.646zM135.192 489.418l281.149-2.622v-294.11l-352.941-96.129v331.954c-0.001 30.821 25.121 61.343 71.792 60.907zM718.226 778.306v-86.019l241.344-77.165v57.65l-205.439 129.075c-21.357 12.878-35.905-3.12-35.905-23.54z" />
<glyph unicode="&#xe908;" glyph-name="guiyang" d="M512 935.988c-134.53 0-256.445-53.776-345.623-140.91h691.247c-89.179 87.134-211.093 140.91-345.623 140.91zM857.623 795.078v-694.157c87.962 89.304 142.296 211.827 142.296 347.078 0 135.254-54.334 257.776-142.296 347.079zM24.081 448c0-135.253 54.334-257.775 142.296-347.078v694.156c-87.962-89.303-142.296-211.825-142.296-347.078zM512-39.988c134.529 0 256.445 53.776 345.623 140.91h-691.247c89.179-87.134 211.093-140.91 345.623-140.91z" />
<glyph unicode="&#xe909;" glyph-name="jiangsu" d="M809.1 655.902c0 0-187.265 218.988-313.643 237.407s-437.463-386.81-437.463-442.068 33.769-178.055 375.553-155.543c0 0-281.007 310.94 375.553 360.204zM179.151 224.463c0 0 180.966-224.221 306.77-246.225s448.28 374.221 449.851 429.457c1.571 55.236-28.696 178.944-370.981 166.153-0.001 0 272.056-318.8-385.639-349.385z" />
<glyph unicode="&#xe90a;" glyph-name="wenzhou" d="M295.541 877.441l-177.865-230.928c-113.419-147.892-111.318-350.036 13.868-493.454 153.279-178.22 443.786-177.203 595.075 18.149l223.167 288.163h-351.086l-120.271-154.469-170.46 131.9 338.681 440.638-351.11 0.001zM617.153 772.39h158.002l-149.714-197.118-100.246 75.825 91.959 121.293zM827.969 772.39h161.62l-230.288-301.393-101.545 78.561 170.212 222.832z" />
<glyph unicode="&#xe90b;" glyph-name="sjzsy" horiz-adv-x="1065" d="M673.119 960c226.76-57.287 391.459-260.177 391.459-503.646 0-286.434-233.921-520.354-520.354-520.354s-520.354 233.921-520.354 520.354c2.387 241.082 167.086 446.359 391.459 503.646l38.191-238.695h-121.734l-62.061-560.932 150.378-2.387 73.995 281.66 100.252-2.387 73.995-279.273 147.991-2.387-59.674 565.706h-112.186l28.643 238.695z" />
<glyph unicode="&#xe90c;" glyph-name="huifeng" horiz-adv-x="2048" d="M1576.145 959.518h-1104.206l-471.517-502.38 492.092-502.38h1063.056l492.092 502.38-471.517 502.38zM525.091-24.666v967.038l473.231-480.090-473.231-486.948zM1524.707-24.666l-473.231 488.663 473.231 480.090v-968.753z" />
<glyph unicode="&#xe90d;" glyph-name="guangfa" horiz-adv-x="1132" d="M565.314 585.502c-20.508 42.354-40.125 85.154-58.85 128.399-34.329 80.696-63.754 162.729-89.166 246.099-92.733-266.607-235.845-511.815-417.298-720.91 130.629 30.762 263.932 50.379 399.019 59.296 61.525 91.841 117.254 187.695 165.849 287.115h0.446zM565.314 303.736c-55.729 0-111.012-1.783-165.849-5.35-74.9-111.012-158.716-216.228-251.003-314.757 135.087 25.858 274.632 38.342 416.852 38.342s282.211-12.483 417.298-38.342c-92.733 98.529-176.549 203.745-251.003 314.757-54.837 3.567-110.12 5.35-165.849 5.35h-0.446zM0.446 239.090l148.016-255.461c92.733 98.529 176.549 203.745 251.003 314.757-135.087-8.917-268.391-28.533-399.019-59.296zM713.33 960c-24.967-83.37-54.837-165.403-89.166-246.099-18.279-43.691-37.896-86.491-58.85-128.399 49.041-99.42 104.325-195.274 165.849-287.116 135.087-8.917 268.391-28.533 399.019-59.296-181.453 209.095-324.565 453.856-417.298 720.91h0.446zM565.76 585.502c20.954 42.354 40.571 85.154 58.85 128.399 34.329 80.696 63.754 162.729 89.166 246.099h-295.586c25.412-83.37 54.837-165.403 89.166-246.099 18.279-43.691 37.896-86.491 58.85-128.399h-0.446zM983.059-16.371l148.016 255.461c-130.629 30.762-263.932 50.379-399.019 59.296 74.454-111.012 158.716-216.228 251.003-314.757z" />
<glyph unicode="&#xe90e;" glyph-name="huaxia" d="M970.106 185.505c0 0 50.69 60.843 53.548 87.020 0 0-1.394 36.174-30.351-20.31 0 0 7.226 34.749-13.123 17.298 0 0-98.564-114.468-140.57-120.26 0 0-311.667-184.114-453.785 186.971 0 0-60.881 175.472 82.622 307.385 143.542 131.997 284.18 118.836 413.168 23.167 0 0 65.246 74.013 92.811 59.418 0.002-0.001 24.67 14.592 13.017 36.25l-36.221 46.332c0 0-142.032-23.167-139.175 56.553 0 0 10.082 59.417-92.774 36.259 0 0-24.63 23.158-23.197 36.252 0 0 7.255 34.742-104.395 15.942 0 0-165.237-20.31-346.495-227.588 0 0-182.612-149.22-182.612 4.435 0 0-100.066-101.53-46.41-182.682 0 0 60.928-85.519 176.897-15.95 0 0-36.213-281.209 149.295-427.723 0 0 194.234-179.678 417.533-115.97 0 0 186.971 39.177 258.011 227.736-0.001 0.002-33.317-33.393-47.796-30.534zM552.573 305.842h308.741v234.883l-308.741-1.502v-233.38z" />
<glyph unicode="&#xe90f;" glyph-name="baoshan" horiz-adv-x="2048" d="M1294.177-65.955c-83.122 0-186.784 18.853-186.784 124.262v570.351l138.356 47.223v-192.567c12.227 0.542 42.766 0.783 48.428 0.783 158.535 0 328.333-91.916 328.333-275.026 0-183.291-169.798-275.026-328.333-275.026zM1291.346 400.855c-38.851 0.602-101.012-4.999-101.012-4.999l55.415-23.672v-299.12c0-51.62 45.356-55.957 78.665-55.957 149.5 0 143.055 191.482 142.814 191.964 0.241 0.301 8.674 188.23-175.882 191.784zM838.752 256.656c125.888-34.996 186.061-86.074 186.061-162.51 0-85.953-88.302-160.101-274.364-160.101-77.4 0-157.029 15.721-196.843 33.791l30.177 80.592c41.862-18.251 107.698-33.851 175.4-33.851 83.845 0 113.962 29.093 113.962 72.461 0 40.296-19.335 59.27-110.83 83.845-120.407 31.562-196.783 82.64-196.783 159.197 0 87.58 98.903 153.053 257.016 153.053 78.665 0 135.646-12.77 173.352-26.804l-31.261-78.183c-26.804 10.3-77.46 25.298-145.283 25.298-83.845 0-102.277-32.586-102.277-63.908 0-41.079 24.816-55.355 121.672-82.881zM186.965-65.955c-83.122 0-186.965 18.853-186.965 124.262v570.351l138.477 47.223v-192.567c12.288 0.542 42.585 0.783 48.488 0.783 158.474 0 328.273-91.916 328.273-275.026 0-183.291-169.798-275.026-328.273-275.026zM184.013 400.855c-38.67 0.602-101.012-4.999-101.012-4.999l55.475-23.672v-299.12c0-51.62 45.296-55.957 78.785-55.957 149.319 0 142.693 191.482 142.693 191.964 0 0.301 8.613 188.23-175.942 191.784zM1649.435 691.602c0 73.605 59.21 132.996 132.755 132.996 73.425 0 132.694-59.39 132.694-132.996 0-73.545-59.27-133.176-132.694-133.176-73.545 0-132.755 59.631-132.755 133.176zM1516.319 691.602c0-147.15 118.901-266.413 265.871-266.413 146.729 0 265.75 119.262 265.75 266.413 0 147.030-119.021 266.413-265.75 266.413-146.97 0-265.871-119.383-265.871-266.413z" />
<glyph unicode="&#xe910;" glyph-name="beijing" horiz-adv-x="1025" d="M1003.731 308.484l4.668 17.167 4.036 17.197 3.463 17.528 2.801 17.136 1.265 8.794 0.904 9.035 0.994 8.794 0.904 8.704 0.301 9.035 0.663 9.095v9.035l0.301 9.095-0.301 13.131-0.301 12.8-0.964 12.8-0.934 12.83-1.265 12.77-1.566 12.498-1.897 12.559-2.47 12.167-2.5 12.197-2.831 12.167-2.801 11.866-3.433 11.896-3.765 11.565-4.066 11.565-4.367 11.535-4.337 11.264-5.029 11.203-4.969 11.294-5.662 10.932-5.602 10.963-5.963 10.571-6.234 10.661-6.837 10.631-6.897 10.3-7.168 10.3-7.499 9.999-7.8 9.999-7.83 9.698-8.433 9.999-8.704 9.366-8.794 9.698-9.396 9.366-9.336 9.065-9.698 9.065-9.667 8.433-9.698 8.403-9.999 8.162-9.999 7.8-10.3 7.499-10.3 7.198-10.3 6.867-10.661 6.565-10.601 6.264-10.902 6.234-10.963 5.602-10.902 5.331-11.264 5.301-11.294 4.698-11.505 4.698-11.565 4.367-11.565 3.765-11.565 3.734-11.896 3.433-11.866 3.132-12.167 2.801-12.167 2.5-12.197 2.229-12.468 1.837-12.498 1.566-12.529 1.536-12.77 0.964-12.8 0.602-12.83 0.663h-26.262l-13.131-0.663-13.101-0.602-12.83-0.964-12.468-1.536-12.498-1.566-12.468-1.837-12.559-2.229-12.137-2.5-12.197-2.801-11.866-3.132-11.866-3.433-23.1-7.499-11.565-4.367-22.497-9.396-11.264-5.301-10.902-5.331-10.963-5.602-21.262-12.498-10.601-6.565-10.3-6.867-10.3-7.198-9.999-7.499-9.999-7.8-9.969-8.162-9.999-8.403-9.396-8.433-9.698-9.065-9.336-9.065-9.366-9.366-8.764-9.698-8.764-9.366-8.403-9.999-8.132-9.698-7.499-9.999-7.529-9.999-7.138-10.3-7.198-10.3-6.565-10.631-6.234-10.661-5.933-10.571-5.933-10.963-5.331-10.932-4.969-11.294-5.029-11.203-4.668-11.264-4.066-11.535-4.066-11.565-3.765-11.565-3.433-11.896-3.072-11.866-2.861-12.167-2.5-12.197-2.168-12.167-1.897-12.559-1.566-12.498-1.205-12.77-1.265-12.83-0.602-12.8-0.392-12.8-0.301-13.131 0.301-13.161 0.392-13.101 0.602-12.83 1.265-12.8 1.205-12.77 1.566-12.559 1.897-12.468 2.168-12.197 2.5-12.167 2.861-12.197 3.072-12.167 3.433-11.866 3.765-11.595 4.066-11.866 4.066-11.294 4.668-11.505 5.029-11.264 4.969-11.294 5.331-10.872 5.933-10.993 5.933-10.902 6.234-10.601 6.565-10.661 7.198-10.601 7.138-10.3 7.529-10.029 7.499-10.27 8.132-9.698 8.403-9.999 17.528-19.395 9.366-9.396 9.336-9.035 9.698-9.095 9.396-8.734 9.999-8.101 9.969-8.132 9.999-7.8 9.999-7.529 10.3-7.138 10.3-6.927 10.601-6.535 10.661-6.234 10.601-6.234 21.865-11.294 11.264-4.939 11.234-5.060 11.264-4.367 11.565-4.367 11.565-4.036 11.535-3.463 11.866-3.463 11.866-3.102 12.197-2.831 12.137-2.47 12.559-2.199 24.967-3.734 12.468-1.295 12.83-0.904 13.101-0.602 13.131-0.663h13.161l18.431 0.301 18.1 0.663 17.799 1.506 17.829 1.897 17.438 2.53 16.926 3.102 17.136 3.734 16.594 4.066 16.233 5.060 16.233 5.24 15.932 5.963 15.631 6.234 15.269 7.198 15.329 7.529 15.028 8.101 14.637 8.433 10.029 6.234 9.667 6.234 9.396 6.264 8.734 6.596 8.734 6.234 8.101 6.565 7.8 6.535 7.529 6.596 6.837 6.867 6.927 6.596 6.234 6.837 5.933 6.867 5.632 7.198 5.27 6.867 4.728 7.198 4.668 7.198 4.066 7.168 3.734 7.198 3.463 7.168 3.072 7.499 2.861 7.529 2.199 7.499 2.168 7.469 1.566 7.8 1.235 7.529 0.964 7.83 0.301 7.8 0.301 7.83-0.301 8.101-0.301 7.83-0.964 8.132-1.235 8.101-1.566 6.565-1.566 6.837-1.897 6.294-1.867 6.535-2.5 6.234-2.47 5.963-2.861 5.933-3.072 5.933-3.463 5.662-3.433 5.632-4.066 5.541-4.066 5.361-4.367 5.029-4.337 4.939-10.029 10.029-5.331 4.638-5.632 4.427-5.933 4.367-5.873 4.367-6.294 4.066-6.535 4.066-6.867 3.765-7.198 4.066-7.198 3.433-7.469 3.403-7.8 3.433-8.132 3.162-8.433 3.102-8.463 3.162-8.734 2.771-9.095 2.861-23.371 8.101 7.439 4.367 7.228 4.668 6.837 4.728 6.294 4.969 5.933 5.331 5.602 5.27 5.029 5.632 4.638 5.933 4.367 5.933 3.765 6.264 3.765 6.596 2.831 6.535 2.801 6.867 2.168 6.897 1.566 7.168 1.596 7.499 0.602 8.734 0.301 8.101-0.301 8.493-0.602 8.433-1.596 8.101-2.168 8.132-2.47 7.83-3.162 8.132-3.765 7.8-4.367 7.83-5.029 7.8-5.541 7.469-6.325 7.499-6.837 7.499-7.529 7.228-7.8 7.138-8.734 7.529-8.704 7.228-9.095 6.535-9.396 6.234-9.637 5.933-9.999 5.632-10.33 4.999-10.631 4.999-10.902 4.397-11.264 4.367-11.565 3.734-11.866 3.433-12.197 3.132-12.468 3.102-12.86 2.53-13.071 2.168-15.028 2.168-14.968 1.897-15.631 1.566-15.6 1.265-15.962 1.235-16.233 0.934-16.233 0.632-33.731 0.632-17.227-0.331h-17.438l-17.829-0.602-54.993-2.801-18.733-1.596v-161.546l14.998 1.897 14.998 1.867 14.968 1.205 15.329 1.295 15.028 0.964 15.269 0.602 15.329 0.301h30.9l15.299-0.602 15.661-0.663 15.6-1.205 15.6-1.295 15.6-1.566 31.894-3.765 12.83-2.168 12.197-2.5 11.173-2.771 10.691-2.861 9.667-3.403 9.035-3.433 8.403-3.765 10.993-5.933 3.072-2.168 3.162-2.5 2.801-2.199 2.831-2.53 2.168-2.5 2.5-2.47 1.867-2.47 1.867-2.861 1.897-2.801 1.566-2.831 1.235-3.102 0.964-2.861 0.904-3.072 0.663-3.162 0.602-3.433v-5.602l-0.602-2.831-0.663-3.102-2.47-6.897-3.463-7.83-2.199-3.072-2.47-3.162-2.801-2.771-3.433-2.199-3.463-2.199-3.734-1.867-4.096-1.566-4.337-1.295-4.668-0.904-5.331-0.964-5.331-0.301h-11.896l-6.234 0.301-6.535 0.964-7.198 0.904-18.733 2.199-18.431 1.867-18.401 1.596-18.16 1.265-17.769 0.904-17.799 0.663-35.327 0.632-34.333-0.632-17.227-0.663-16.835-0.904-16.534-1.265-16.594-1.596-16.233-1.867-16.263-2.199v-164.618l22.798 2.47 22.166 2.47 21.865 1.897 21.865 1.566 20.961 0.964 20.901 0.904 20.299 0.331h19.998l39.092-1.235 18.703-1.265 18.492-1.867 18.1-1.897 17.829-2.47 17.136-2.801 30.297-5.632 12.529-3.162 11.866-3.072 10.902-3.433 10.3-4.066 9.396-4.096 4.367-2.168 4.066-2.168 4.066-2.259 3.734-2.47 3.463-2.47 3.373-2.5 3.162-2.861 2.801-2.47 2.831-2.801 2.5-2.831 2.168-2.801 2.199-3.132 1.867-3.102 1.566-3.162 1.596-3.072 0.873-3.463 1.295-3.162 0.602-3.403 0.602-3.433 0.663-3.765v-2.771l0.301-3.162-0.301-3.132v-2.801l-0.663-3.102-0.602-2.861-0.904-3.132-0.994-2.771-1.205-3.162-1.566-2.801-1.566-3.102-1.897-3.132-4.036-6.234-4.999-6.264-3.132-3.734-3.765-3.463-3.734-3.463-4.066-3.072-4.066-3.162-4.367-3.102-4.367-2.831-4.698-2.801-4.668-2.771-4.969-2.56-5.361-2.47-5.301-2.5-5.632-2.168-5.903-2.199-5.933-1.867-6.294-1.867-6.234-1.897-13.101-3.132-7.198-1.235-14.336-2.53-15.058-2.199-15.902-1.506-16.865-1.265-17.498-0.693h-28.099l-9.728 0.392-19.305 1.205-9.396 0.964-9.396 1.205-9.005 1.295-9.396 1.566-9.035 1.867-9.065 2.199-8.734 2.168-17.528 4.969-8.704 3.162-16.926 6.234-16.835 7.529-8.101 3.734-8.192 4.367-7.74 4.367-7.8 4.668-7.83 4.728-7.83 4.969-7.499 5.331-7.499 5.632-7.469 5.632-7.499 5.963-7.228 6.234-7.138 6.234-6.897 6.535-7.168 6.927-6.596 6.837-6.535 7.228-6.565 7.138-6.234 7.228-5.933 7.138-5.632 7.529-5.632 7.499-5.331 7.499-4.969 7.83-5.029 7.469-4.668 8.101-4.367 7.83-4.066 8.101-4.036 8.132-3.765 8.132-3.765 8.463-3.433 8.132-3.102 8.704-2.861 8.463-2.771 8.764-2.47 8.734-2.259 8.704-2.168 9.125-1.837 9.065-1.566 9.035-1.566 9.396-0.964 9.336-1.235 9.366-0.663 9.427-0.602 9.667-0.301 9.728v19.305l0.301 9.698 0.602 9.698 0.663 9.396 1.235 9.336 0.964 9.396 1.566 9.035 1.566 9.396 1.837 8.764 2.168 9.035 2.259 8.734 2.47 9.095 2.771 8.403 2.861 8.794 3.102 8.433 3.433 8.433 3.765 8.403 3.765 8.132 4.036 8.101 4.066 8.132 4.367 8.192 4.668 7.77 5.029 7.8 4.969 7.499 5.331 7.83 5.632 7.499 5.632 7.529 5.933 7.168 6.234 7.198 6.565 7.168 6.535 7.168 6.596 6.897 7.168 6.867 7.198 6.565 7.138 6.264 7.228 6.234 7.499 5.933 7.469 5.632 7.499 5.602 7.499 5.361 7.83 4.969 7.8 4.999 7.8 4.668 16.263 8.764 8.101 4.066 8.132 3.765 8.403 3.433 8.463 3.433 8.463 3.132 8.704 3.102 8.433 2.53 9.095 2.47 8.734 2.5 9.065 1.897 9.035 1.837 9.095 1.596 9.005 1.536 9.396 1.295 9.698 0.934 19.004 1.235 19.395 0.602 19.395-0.602 19.034-1.235 9.366-0.934 9.396-1.295 9.035-1.536 9.095-1.596 9.035-1.837 9.065-1.897 8.734-2.5 8.764-2.47 8.734-2.53 8.433-3.102 8.764-3.132 8.132-3.433 8.433-3.433 8.101-3.765 8.132-4.066 8.101-4.367 7.83-4.397 8.101-4.668 7.529-4.999 7.8-4.969 7.469-5.361 7.499-5.602 7.228-5.632 7.439-5.933 7.198-6.234 6.927-6.264 7.138-6.565 6.897-6.867 6.565-6.897 6.535-6.837 6.535-7.198 6.294-7.198 5.933-7.168 5.572-7.529 5.632-7.499 5.361-7.499 4.939-7.83 4.728-7.77 4.668-7.8 4.668-8.132 4.066-7.8 4.066-8.493 3.734-8.132 3.765-8.403 3.463-8.433 3.102-8.433 5.632-17.498 2.47-8.734 2.229-8.794 2.199-9.035 1.867-9.065 1.506-9.035 1.265-9.396 1.295-9.396 0.904-9.336 0.964-9.396 0.602-9.698 0.301-9.698v-9.667l-1.867-41.23 8.132-5.029 8.101-4.668 8.132-5.331 7.8-5.27 7.499-5.632 15.058-11.264 7.138-6.234 14.366-12.498 6.596-6.596 6.837-6.565 6.535-7.138 6.234-6.927 6.325-7.499 6.234-7.469z" />
<glyph unicode="&#xe911;" glyph-name="bohai" horiz-adv-x="1755" d="M1507.12-22.292l248.231 514.016c0 0-534.874 799.574-1755.325-228.457 0 0 786.047 489.957 1507.094-285.559zM1566.235 725.085c0 0-342.763 204.398-865.814 0 0 0-200.991 99.23-404.873 0 0 0 237.957 306.623 575.505 114.254l59.838 12.029c0 0 428.518 243.481 682.635-3.046 0 0 44.297-108.162-47.292-123.238z" />
<glyph unicode="&#xe912;" glyph-name="hengfenyx" d="M512.015 960c-282.736 0-512.015-229.279-512.015-512.015 0-282.706 229.279-511.985 512.015-511.985s511.985 229.279 511.985 511.985c0 282.736-229.249 512.015-511.985 512.015zM623.086 130.343c-1.656 39.242 5.602 103.421-20.961 117.696l-170.099 0.873c-29.334-23.491-24.786-75.473-29.153-118.57h-215.004l83.213 577.459h129.080l6.204 147.964h222.533l1.596-144.41h117.335l84.899-581.013h-209.643zM456.058 595.647v-79.538h-57.282v79.538c-17.95 16.564-37.736 16.564-59.39 0v-251.114c19.787-12.709 39.573-11.203 59.39 0v103.421h57.282v-103.421c16.564-13.462 36.893-10.481 58.999 0v251.114c-19.666 15.631-39.332 15.631-58.999 0zM549.902 346.612c19.034-12.95 39.543-14.697 62.221 0v82.068h81.857v64.661h-81.857v48.699h81.857v62.583h-144.079v-258.010z" />
<glyph unicode="&#xe913;" glyph-name="shanghai" horiz-adv-x="1025" d="M528.143 520.794c132.036 0 248.019-10.662 347.949-30.178 60.657-12.499 108.815-24.877 148.058-40.9l-513.867 510.103-510.283-508.326c44.604 15.992 101.707 30.238 169.532 40.84 108.845 19.576 228.352 28.461 358.611 28.461v0zM510.283-63.97l510.313 510.103c-71.379 5.361-169.562 5.361-292.593-3.524-130.259-8.915-219.497-21.323-271.24-37.316-46.381-14.246-67.795-33.762-64.241-56.892 0-7.138 3.614-16.023 10.722-23.1l12.499-10.692c17.83-12.408 28.521-17.769 32.105-21.323 16.053-14.246 21.384-32.015 17.83-53.338-7.108-28.371-64.241-58.609-169.442-88.847l214.046-215.070z" />
<glyph unicode="&#xe914;" glyph-name="zhongxin" horiz-adv-x="1025" d="M990.208 478.449c-29.064 1.416-53.368 23.672-61.771 53.971-1.295 4.096-5.060 7.349-9.065 7.349-3.403 0-7.017-3.373-7.981-5.15-18.071-22.799-29.666-52.495-29.666-85.685 0-33.129 11.595-63.639 29.666-86.468 0.964-1.837 4.578-5.18 7.981-5.18 4.006 0 7.77 3.223 9.065 7.379 8.403 30.298 32.708 52.525 61.771 53.941 14.758-1.024 27.016-11.234 33.551-25.389-0.602-6.174-1.265-12.77-2.018-19.576-19.546-133.542-90.744-250.338-192.783-329.608v808.388c106.888-83.064 180.013-207.39 195.223-348.973-6.716-13.553-19.637-23.974-33.973-24.998zM648.523 617.623c0 71.951 40.84 133.481 98.455 157.606v-783.571c-30.961-15.661-63.759-28.28-97.882-37.496l-0.572 663.462zM733.064 868.683c-83.275-31.352-159.383-111.164-159.383-205.252v-723.787c-19.727-2.319-39.755-3.524-60.115-3.524-20.179 0-40.117 1.205-59.723 3.403l-0.301 723.908c0 94.088-76.168 173.899-159.533 205.252-8.041 3.464-13.854 11.535-13.854 20.932 0 10.36 7.048 19.727 16.324 22.408 65.928 30.69 139.445 47.827 217.088 47.827 77.673 0 151.191-17.137 217.088-47.827 9.126-2.68 16.324-12.047 16.324-22.408 0-9.397-5.783-17.468-13.914-20.932zM0 448.211c0 165.527 78.697 312.681 200.915 406.257v-364.544c-6.536-6.505-14.818-10.782-24.094-11.475-29.154 1.416-53.519 23.672-61.922 53.971-1.265 4.096-5.060 7.349-9.035 7.349-3.494 0-7.108-3.373-8.011-5.15-18.191-22.799-29.786-52.495-29.786-85.685 0-33.129 11.595-63.639 29.786-86.468 0.904-1.837 4.518-5.18 8.011-5.18 3.976 0 7.77 3.223 9.035 7.379 8.403 30.298 32.768 52.525 61.922 53.941 9.276-0.663 17.559-4.909 24.094-11.475v-365.207c-122.217 93.666-200.915 240.791-200.915 406.287zM378.609 617.623l-0.542-663.462c-34.214 9.216-66.982 21.835-97.912 37.496v783.571c57.645-24.124 98.455-85.655 98.455-157.606z" />
<glyph unicode="&#xe915;" glyph-name="bjncsy" horiz-adv-x="1137" d="M358.129 828.755c0 0-101.535 87.936-190.168-7.836-74.017-97.893-125.619-95.278-164.843-107.225 23.071-24.212 141.834-21.193 209.531 35.752 64.833 66.18 145.48 79.31 145.48 79.31zM589.699 180.383c112.963 27.123 148.625 78.398 158.097 150.269 0 95.334-32.664 122.362-109.8 176.548-81.125 55.614-84.883 208.871 19.473 260.569 77.34 38.563 160.683 22.814 233.003-51.698 82.634-89.893 87.024-147.505 94.144-215.194 0-75.647-29.051-180.151-106.705-253.696-38.868-30.636-149.668-105.097-288.212-66.797zM159.284 573.404c-67.423-198.22 25.397-385.712 76.825-445.514s137.866-147.891 294.339-179.199c83.868-16.781 201.659-10.389 302.41 33.721 87.221 38.186 161.057 109.415 196.552 160.281 76.498 109.622 115.589 264.349 92.603 415.716s-184.287 385.035-458.431 396.729c40.254-11.694 145.067-48.361 179.194-72.924s122.837-89.768 168.038-182.155c45.201-92.387 54.592-194.696 18.596-309.626-20.901-66.734-80.005-143.795-160.265-197.555s-187.973-65.614-279.881-50.185c-147.495 24.76-245.403 133.017-289.942 242.114s-51.766 280.26 94.78 440.5c10.603 9.769-167.395-53.683-234.818-251.903z" />
<glyph unicode="&#xe916;" glyph-name="zgguangd" horiz-adv-x="780" d="M0.338 959.995h574.864c19.232-10.351 36.361-20.732 51.324-32.121h-104.752v-29.007h141.030c10.752-10.411 21.453-20.733 29.927-32.121h-170.956v-26.932h190.188c6.427-10.382 11.767-20.733 16.063-32.148h-573.797v-26.964h582.328c2.136-10.323 4.269-20.671 4.269-32.092h-586.596v-26.96h586.597c0-10.322-2.132-21.737-4.269-32.092h-582.328v-26.96h573.797c-3.201-10.378-8.565-21.738-13.869-32.093h-559.928v-26.931h543.926c-7.554-11.416-15.054-21.767-24.599-32.15h-519.326v-26.932h493.666c-10.728-11.36-23.561-21.77-36.332-32.148h-151.753v-26.904h189.152c13.843-10.378 26.698-20.699 37.37-32.148h-226.522v-26.932h251.115c8.535-10.379 16.030-21.77 23.5-32.092h-580.198v-26.987h595.133c5.334-10.354 9.658-21.798 13.927-32.065h-609.059v-26.988h617.595c2.132-11.421 4.269-21.77 5.362-32.121h-622.957v-26.932h625.062c0-11.421 0-21.77-1.065-32.121h-623.996v-27.969h619.728c-3.23-10.383-5.305-20.732-9.63-31.115h-610.098v-27.969h598.363c-5.305-10.35-11.766-20.727-19.204-32.092h-211.614v-26.96h191.282c-9.63-10.379-20.326-21.766-33.13-32.093h-158.152v-26.932h122.891c-17.039-11.444-35.235-21.826-55.594-32.176h-588.733v980.244z" />
<glyph unicode="&#xe917;" glyph-name="zgmins" horiz-adv-x="1252" d="M631.86 320.665l115.033-63.042-115.033-62.922v-75.607l287.494 149.059-287.494 125.926v-73.414zM631.86 897.735v60.882h3.968c206.261 6.361 616.663-73.409 614.679-321.098h-190.39c-27.707 186.81-229.964 266.575-428.257 260.216zM516.893 257.621l107.026 67.168 7.941-4.125v73.414l-27.742 12.602c0 0-416.424-16.808-380.747 289.564 43.682 123.841 226.068 197.329 408.49 201.491v60.882c-226.032-6.245-541.276-71.292-600.797-287.515-1.984-8.365-3.931-14.651-3.931-21.012v-29.34c11.83-123.885 184.364-266.502 467.899-266.502l-152.62-96.626 271.589-146.86 17.859 8.33v75.607l-3.973-2.118-110.994 65.040zM736.938 635.439l-107.026-65.050-7.977 2.052v-73.452l25.793-10.454c0 0 416.391 14.697 382.664-289.63-45.594-123.804-225.997-197.331-408.457-201.464v-60.916c226.111 8.367 541.31 71.333 600.797 287.516 1.984 6.283 4.003 12.607 4.003 21.054v27.222c-11.902 125.958-186.425 266.575-467.969 268.693l150.708 94.427-269.644 149.020-17.894-10.564v-73.373l3.968 2.081 111.035-67.165zM621.936 572.441l-115.040 62.998 115.040 65.084v73.373l-287.5-146.861 287.5-128.047v73.453zM621.936-2.56v-60.916h-3.968c-206.118-4.199-616.628 73.452-616.628 321.097h192.341c27.775-184.683 228.013-264.415 428.254-260.181z" />
<glyph unicode="&#xe918;" glyph-name="zgyouz" horiz-adv-x="1078" d="M99.894 397.189l-5.195-29.538h155.881l6.918 29.538h-157.603zM496.5 367.649l5.242 29.538h-176.683l-6.955-29.538h178.396zM595.285 516.616l-24.298-119.427-6.924-29.538-24.196-119.602h-245.973l-5.194-27.665h287.504l38.151 176.805 24.195 119.427h344.736l-25.977-119.427h-275.394l-62.424-296.248h-356.814l-5.183-27.83h400.124l38.142 174.943 24.201 119.602h232.115l-24.201-119.607h-164.653l-36.273-174.943-25.977-119.438h-537.021l62.381 294.385h-225.176l25.977 119.602 5.194 29.528 25.981 119.438h223.451l62.403 294.468h245.964l31.129 148.889h455.572l-25.982-119.525h-388.011l-5.22-29.368-24.21-119.603h-245.963l-6.959-27.669h289.278l5.236 27.669 25.976 119.603h344.655l-25.977-119.603h-275.413l-31.197-147.189h-356.774l-6.955-27.676h245.974z" />
<glyph unicode="&#xe919;" glyph-name="jinzhouyx" horiz-adv-x="2958" d="M836.715 840.585c-79.244 65.242-189.902 119.011-334.094 117.315-34.849-4.247-69.714-8.501-104.564-12.751-27.566-8.121-60.732-19.155-91.813-30.602-38.328-14.116-78.444-48.28-107.115-73.959-119.641-107.146-168.746-185.47-196.374-387.65-7.003-51.221 13.737-115.261 25.502-153.020 56.154-180.2 172.243-275.602 336.646-346.845 57.81-25.048 247.437-23.504 306.040 0 96.622 38.76 187.422 96.876 244.833 175.974-0.849 2.548-1.702 5.1-2.551 7.654-3.401 1.699-6.802 3.401-10.2 5.097-25.32-23.037-80.727-48.021-114.767-12.751-32.635-6.734-44.258-16.276-91.813-15.303-16.152 15.303-32.304 30.608-48.456 45.905-47.53 91.47 88.226 214.907 122.415 280.538-12.634 83.086-117.609 140.791-135.169 229.53-10.431 52.728 41.855 99.538 73.962 112.215 35.727 14.104 50.538-18.283 76.51-15.303 22.253 2.555 36.521 24.857 68.859 15.303 23.167-6.845 34.985-27.312 61.207-33.154-3.506 42.705-52.521 69.965-79.058 91.807zM727.054 414.678c-8.167-27.229-37.951-38.386-53.559-58.656-61.544-1.504-87.618 9.622-112.212 43.353-68.34-9.826-117.062-72.186-153.020-117.315-2.551-0.849-5.1-1.699-7.651-2.548-7.651 6.799-15.303 13.601-22.951 20.399 8.161 68.423 109.457 109.608 165.771 132.621 5.054 8.062 6.891 8.698 7.651 22.951-37.027 20.464-74.264 32.168-109.664 53.559-25.014 15.114-41.472 45.395-63.756 63.759 2.885 16.217 7.902 22.685 15.3 33.154 6.802-0.849 13.604-1.699 20.402-2.551 14.889-9.292 3.966-12.282 12.751-28.054 13.761-24.708 99.918-78.938 140.269-79.062 16.56 16.387 36.996 35.245 61.207 43.356 54.606 18.302 116.963-66.595 99.461-124.966zM1293.227 437.635c-13.499-53.368-56.725-72.714-102.012-94.364-5.1 0.846-10.2 1.702-15.303 2.548 0 66.304 0 132.627 0 198.928 1.699 0.849 3.401 1.699 5.1 2.551 58.81-5.461 95.004-50.619 114.764-96.913 147.655 32.805 128 244.203 7.651 298.389-79.862 35.958-275.892-13.455-372.348 10.203-24.776-44.135 4.451-124.274-5.1-183.625 1.699-68.003 3.401-136.025 5.1-204.028-2.551-10.197-5.1-20.399-7.651-30.602 0.849-68.85 1.702-137.724 2.551-206.576 114.751 0 229.543 0 344.294 0 35.211 7.376 70.366 26.324 91.813 48.456 76.689 79.145 34.448 236.564-68.859 255.033zM1027.991 335.619c-11.448-15.818-45.537-2.579-61.207 2.548-9.199 19.806-12.309 182.819-2.551 206.579 9.082 14.66 29.799 10.759 45.905 17.851 5.1 0 10.2 0 15.303 0 9.548-26.312 14.225-198.289 2.551-226.979zM1142.755 338.168c-0.849-1.699-1.699-3.401-2.551-5.1-16.146-4.945-51.496-13.845-71.407-5.097-18.787 14.203-8.868 228.709 7.651 239.733 19.55-2.551 39.106-5.1 58.656-7.651 19.596-33.67 8.356-169.197 7.651-221.885zM2843.831 409.578c0 0.849 0 1.702 0 2.551 36.978 30.627 128.723 88.464 79.058 155.572-12.529 16.931-28.162 29.209-53.556 33.154-73.576 11.426-122.776-133.483-183.622-150.469 8.037 129.94 39.841 308.895-102.012 306.040-20.989-12.597-42.902-21.060-53.556-43.356-24.922-52.132-7.639-306.383-7.654-387.653-0.006-45.204-11.599-130.851 10.203-158.117 31.547-39.455 117.222-44.944 145.372 2.548 13.282 22.41 11.176 64.472 10.2 99.461 11.902 11.902 23.807 23.807 35.705 35.705 2.551 0.853 5.1 1.702 7.651 2.555 34.51-45.411 81.153-214.404 175.974-170.871 126.199 57.933-20.909 215.871-63.762 272.881zM913.228 531.996c0 22.951 0 45.908 0 68.859-24.721 8.149-40.027-41.030-53.556-61.207-16.714-24.919-58.412-60.179-63.759-91.813-4.152-24.557 87.47-125.51 99.464-158.12 5.949-1.699 11.902-3.401 17.851-5.1 0.849 22.101 1.702 44.209 2.551 66.31-69.924 44.981-120.219 148.896-2.551 181.071zM1920.607 483.54c-21.681 88.053-145.366 110.050-260.132 107.112-59.512-22.512-221.95-29.688-178.526-135.169 4.556-12.915 10.873-20.22 22.954-25.502 9.143-6.122 40.635-8.68 53.559-2.551 16.998 13.604 34.006 27.207 51.008 40.808 52.385 26.556 165.623 37.843 140.266-45.905-103.421-58.65-280.779-4.698-308.589-140.269-23.251-113.349 118.31-177.309 224.43-145.369 41.991 12.637 64.528 46.726 99.461 58.653 9.279-76.325 115.835-78.292 147.92-22.951 17.826 30.747 7.657 106.037 7.651 150.469-0.003 53.556-0.003 107.122-0.003 160.675zM1624.773 233.604c-9.52 12.702-22.336 31.195-10.206 51.008 19.080 40.147 98.315 35.832 132.621 61.207 3.401-0.846 6.802-1.702 10.2-2.548 3.284-96.418-45.074-139.528-132.615-109.667zM2280.204 590.652c-26.38-13.286-60.482-8.078-81.61-25.502-18.537-15.29-30.13-40.734-53.559-51.008-16.773 22.188-17.487 48.154-40.805 63.759-46.121 30.868-106.417-5.199-117.315-43.356 0-116.456 0-232.947 0-349.397 11.123-16.242 21.172-27.556 38.257-38.257 17.554-10.994 52.945-19.022 79.058-7.651 21.607 9.409 43.375 25.839 51.011 48.456 25.997 77.048-44.898 306.671 81.61 275.438 121.331-29.954-25.734-322.681 124.966-328.994 29.981-1.254 52.719 2.551 68.859 15.3 37.636 29.747 28.051 111.653 28.051 178.526 0.006 160.125-22.268 262.801-178.523 262.687z" />
<glyph unicode="&#xe91a;" glyph-name="shaoxingyx" d="M503.842 864.779c137.126-52.361 245.47-240.591 57.467-321.809-14.046 11.491-28.098 22.988-42.143 34.479-0.173 52.157 19.657 53.375 45.973 76.621-3.83 3.831-7.661 7.663-11.493 11.493-20.814 9.442-34.297 27.462-45.973 45.973-2.554-1.278-5.108-2.554-7.661-3.831-11.647-30.401-36.295-51.61-72.791-57.466 28.872-61.035 79.94-133.906 153.242-149.412 0-1.278 0-2.553 0-3.831-46.486 0.918-88.649 12.375-122.594 26.818-1.010-100.938-45.198-196.703-118.763-226.034-102.488-40.863-244.713 77.13-249.020 149.413 11.493 16.6 22.987 33.204 34.479 49.804 79.117 107.872 215.071 178.291 287.33 7.661-11.493-14.047-22.987-28.097-34.479-42.142-46.113-0.886-59.655 14.447-72.79 45.973-5.107-3.831-10.218-7.663-15.324-11.493-9.44-20.815-27.462-34.296-45.973-45.973 1.276-2.553 2.556-5.108 3.831-7.661 30.401-11.646 51.611-36.294 57.466-72.792 50.919 23.495 155.297 90.801 145.581 157.075-42.377 13.293-69.341 42.922-88.115 80.452-66.125 132.19 67.121 211.272 141.749 256.681zM710.719 611.929c92.759 3.541 249.218-105.639 214.54-168.567-52.547-137.303-237.456-223.812-314.148-45.975 11.493 14.048 22.987 28.098 34.479 42.144 46.113 0.887 59.655-14.447 72.79-45.974 5.107 3.83 10.218 7.664 15.325 11.494 9.44 20.815 27.462 34.297 45.974 45.973-1.277 2.554-2.556 5.109-3.831 7.663-30.401 11.647-51.611 36.295-57.467 72.79-61.035-28.872-133.906-79.94-149.411-153.244-1.276 0-2.555 0-3.831 0 3.275 131.011 55.233 187.762 145.58 233.698zM434.883 401.22c112.037-1.228 213.129-51.998 233.696-145.583 21.052-95.792-118.515-242.374-168.567-214.539-137.302 52.546-223.811 237.458-45.973 314.147 14.045-11.49 28.097-22.987 42.142-34.479 0.886-46.111-14.447-59.651-45.973-72.791 3.831-5.102 7.661-10.214 11.493-15.324 20.814-9.44 34.297-27.461 45.973-45.973 2.553 1.279 5.108 2.554 7.663 3.831 11.646 30.401 36.294 51.614 72.79 57.465-36.824 76.226-83.758 109.479-153.242 153.246z" />
<glyph unicode="&#xe91b;" glyph-name="chouzhou" d="M493.003 882.369c58.722 1.637 111.234-14.356 136.403-46.664-22.108-29.954-98.576-118.21-165.12-80.764-25.723 25.722-51.452 51.452-77.175 77.175 2.991 3.589 5.982 7.18 8.974 10.768 16.749 9.571 33.503 19.145 50.253 28.716 15.553 3.592 31.112 7.181 46.665 10.769zM636.584 826.732c16.074-7.627 24.271-27.225 32.306-43.075 39.713-78.324 12.309-148.746-28.716-202.809-27.519 26.919-55.043 53.845-82.56 80.764-2.831 24.87-4.604 53.949-3.591 82.56 27.521 27.516 55.044 55.043 82.561 82.559zM378.137 824.937c111.606-81.901 111.585-157.953 0-240.499-74.365 58.488-45.813 178.575 0 240.499zM491.207 659.818c83.236 1.038 94.625-51.038 139.992-86.149-2.392-2.991-4.786-5.983-7.178-8.974-63.308-29.538-117.687-60.151-197.425-17.948-8.611 4.557-40.831 18.72-39.485 30.511 25.124 25.124 50.257 50.256 75.381 75.38 9.572 2.392 19.145 4.788 28.716 7.181zM236.349 625.717c58.723 1.637 111.235-14.357 136.403-46.665-22.105-29.954-98.575-118.209-165.119-80.764-25.723 25.724-51.452 51.453-77.175 77.176 2.991 3.589 5.982 7.18 8.974 10.768 16.749 9.572 33.504 19.144 50.254 28.716 15.551 3.591 31.11 7.181 46.663 10.769zM747.86 625.717c58.723 1.637 111.236-14.357 136.403-46.665-22.106-29.954-98.575-118.209-165.12-80.764-25.722 25.724-51.452 51.453-77.174 77.176 2.991 3.589 5.982 7.18 8.974 10.768 16.75 9.572 33.503 19.144 50.251 28.716 15.554 3.591 31.111 7.181 46.665 10.769zM379.932 570.079c16.073-7.627 24.269-27.225 32.306-43.075 39.713-78.323 12.309-148.745-28.717-202.809-27.517 26.918-55.042 53.847-82.559 80.765-2.83 24.869-4.604 53.948-3.59 82.559 27.518 27.518 55.043 55.042 82.56 82.559zM891.443 570.079c16.073-7.627 24.269-27.225 32.306-43.075 39.711-78.323 12.307-148.745-28.717-202.809-27.517 26.918-55.042 53.847-82.559 80.765-2.831 24.869-4.605 53.948-3.59 82.559 27.517 27.518 55.042 55.042 82.56 82.559zM121.484 568.284c111.606-81.901 111.585-157.953 0-240.5-74.365 58.489-45.814 178.577 0 240.5zM632.995 568.284c111.605-81.901 111.586-157.953 0-240.5-74.365 58.489-45.814 178.577 0 240.5zM234.555 403.165c83.237 1.038 94.624-51.039 139.992-86.15-2.392-2.99-4.786-5.984-7.18-8.974-63.306-29.539-117.685-60.15-197.424-17.947-8.611 4.556-40.831 18.72-39.484 30.509 25.124 25.124 50.256 50.258 75.381 75.382 9.57 2.394 19.144 4.788 28.715 7.181zM746.065 403.165c83.237 1.038 94.623-51.039 139.992-86.15-2.392-2.99-4.786-5.984-7.18-8.974-63.306-29.539-117.685-60.15-197.424-17.947-8.611 4.556-40.83 18.72-39.485 30.509 25.125 25.124 50.255 50.258 75.38 75.382 9.572 2.394 19.146 4.788 28.717 7.181zM491.207 370.859c58.723 1.637 111.235-14.356 136.404-46.665-22.108-29.953-98.576-118.21-165.12-80.765-25.723 25.724-51.453 51.452-77.175 77.175 2.991 3.591 5.982 7.18 8.974 10.769 16.749 9.571 33.504 19.145 50.254 28.717 15.553 3.59 31.111 7.18 46.663 10.769zM634.789 315.221c16.075-7.628 24.27-27.224 32.306-43.075 39.713-78.323 12.309-148.745-28.716-202.809-27.519 26.918-55.043 53.847-82.56 80.764-2.83 24.872-4.603 53.949-3.59 82.561 27.519 27.517 55.043 55.041 82.56 82.558zM376.342 313.427c111.606-81.901 111.586-157.954 0-240.5-74.364 58.488-45.814 178.576 0 240.5zM489.413 148.307c83.237 1.039 94.625-51.040 139.993-86.15-2.394-2.991-4.788-5.984-7.181-8.974-63.307-29.538-117.685-60.149-197.424-17.948-8.612 4.557-40.831 18.72-39.484 30.511 25.123 25.124 50.257 50.257 75.381 75.38 9.571 2.395 19.143 4.79 28.715 7.182z" />
<glyph unicode="&#xe91c;" glyph-name="nbsy" d="M427.399 861.176c208.582 3.519 367.904-97.699 416.29-251.79-72.734 0-145.487 0-218.217 0-53.71 52.592-107.433 105.197-161.144 157.789-39.165-38.043-78.339-76.101-117.503-114.145-67.137-68.255-134.294-136.533-201.431-204.788 38.044-39.163 76.101-78.339 114.145-117.503 68.256-67.137 136.533-134.294 204.789-201.431 54.827 52.593 109.673 105.2 164.501 157.787 71.614-1.117 143.248-2.237 214.861-3.356-141.419-298.435-561.795-337.112-738.58-43.644-15.666 41.402-31.337 82.816-47 124.216-51.8 226.13 97.153 402.965 238.36 463.295 43.641 11.188 87.29 22.38 130.931 33.571zM971.261 572.457c-33.456 20.189-94.723 18.222-151.073 16.786-36.925-74.97-73.862-149.961-110.787-224.934-1.119-2.236-2.237-4.475-3.357-6.714-11.19 76.090-22.381 152.2-33.573 228.289-16.784 1.119-33.573 2.239-50.357 3.357-48.116-95.111-96.244-190.25-144.359-285.361 12.308 0 24.62 0 36.927 0 39.164 78.328 78.34 156.676 117.502 235.002 1.121 0 2.239 0 3.356 0 12.309-78.326 24.621-156.674 36.929-235.002 129.13-3.32 249.050 3.808 248.432 127.573-10.333 10.748-11.895 16.024-30.215 20.144 0 1.119 0 2.237 0 3.357 44.024 26.928 94.543 52.819 80.574 117.502zM742.974 337.453c15.665 32.45 31.336 64.91 47 97.359 34.476 0.312 60.125-3.235 83.931-10.071 2.239-5.595 4.475-11.191 6.715-16.784-20.164-58.838-55.418-73.56-137.646-70.504zM836.974 465.027c-8.954 0-17.903 0-26.857 0 13.425 30.212 26.862 60.433 40.286 90.645 23.497-1.119 47.005-2.238 70.502-3.357 3.357-5.594 6.715-11.191 10.072-16.785-17.281-49.23-40.068-57.285-94.003-70.503z" />
<glyph unicode="&#xe91d;" glyph-name="jiaotong" horiz-adv-x="931" d="M757.981 205.999c-59.321-1.843-114.115-3.758-173.38-5.678-37.496-158.863-348.074-115.963-313.502 85.658 17.412 119.409 179.716 171.597 280.333 81.335 22.142-24.791 32.949-47.88 40.12-98.533 49.696 1.992 116.741 3.911 166.429 5.755 2.55 256.87-290.813 387.344-510.8 262.553-210.871-119.412-186.491-483.5 34.417-576.527v-5.76c-120.488 2.387-252.618 95.241-281.442 205.532l1.689 592.378c95.572 64.654 201.276 142.248 297.045 206.948 3.741-1.964 7.555-3.796 11.411-5.761-6.556-89.218-2.398-236.408 2.935-343.938 59.878 57.872 100.316 118.382 203.782 138.455 66.66 12.924 130.408 5.097 170.685-8.526 302.316-103.032 321.144-491.528 64.648-625.22-5.772 0-18.373-11.291-27.688-13.111 0 1.914 5.859 10.193 10.565 18.79 7.549 28.559 15.208 57.103 22.752 85.651z" />
<glyph unicode="&#xe91e;" glyph-name="nanjing" d="M725.32 818.335c-33.797 79.365-121.452 129.121-215.936 129.121-133.371 0-241.597-104.919-241.597-234.296 0-13.517-0.102-27.059 3.461-39.66 4.378-15.59 8.453-18.55 19.702-8.755 59.766 51.932 136.172 86.088 221.583 86.088 26.885 0 52.956-3.231 77.947-9.339 11.96-2.877 11.868-3.236 22.339 3.205 31.611 19.471 66.995 35.405 104.463 50.115 9.175 3.584 13.445 10.86 8.038 23.521zM201.815 747.136c-85.985-7.603-160.461-75.663-189.573-165.489-41.226-126.863 25.098-262.19 148.132-302.177 12.882-4.183 25.759-8.448 38.794-8.955 16.184-0.671 20.26 2.248 14.459 15.98-30.956 72.929-39.808 156.155-13.44 237.373 8.346 25.559 19.451 49.347 32.993 71.245 6.4 10.435 6.707 10.25 3.814 22.216-8.704 36.116-12.933 74.711-15.38 114.877-0.563 9.769-6.164 16.154-19.799 14.93v0 0zM107.643 227.185c-19.297-84.111 22.446-175.933 98.852-231.434 107.919-78.423 257.132-57.144 333.189 47.508 7.931 10.957 15.923 21.868 20.506 34.166 5.612 15.176 4.076 19.927-10.783 18.632-78.848-6.84-160.763 10.414-229.893 60.631-21.688 15.754-40.934 33.725-57.569 53.34-7.946 9.37-7.69 9.574-19.912 10.527-37.069 2.852-75.090 10.767-114.028 20.859-9.482 2.468-17.265-0.86-20.362-14.228v0 0zM573.123-22.994c74.010-44.36 174.198-33.055 250.604 22.436 107.981 78.413 133.842 226.903 57.779 331.576-7.992 10.941-15.892 21.955-26.112 30.049-12.733 10.025-17.766 10.056-21.074-4.449-17.869-77.143-59.617-149.714-128.748-199.931-21.673-15.785-44.698-28.508-68.526-38.277-11.29-4.628-11.448-4.306-16.123-15.713-14.198-34.34-33.449-68.035-55.127-101.955-5.197-8.243-4.49-16.676 7.327-23.736v0 0zM954.865 342.333c65.055 56.689 85.258 155.494 56.1 245.315-41.236 126.853-174.454 197.366-297.492 157.373-12.887-4.168-25.759-8.269-36.654-15.549-13.491-8.986-15.027-13.747-2.289-21.407 67.912-40.822 124.001-102.948 150.374-184.172 8.346-25.559 13.281-51.343 15.273-77.010 0.922-12.262 0.502-12.262 9.876-20.224 28.303-24.084 54.42-52.844 80.020-83.907 6.205-7.567 14.459-9.426 24.791-0.42v0 0zM507.351 152.919c-39.398 0-76.877 8.699-110.464 24.253-3.564 1.633-6.676 3.722-6.676 8.637v198.886c0 16.568 12.012 19.794 22.758 9.032 29.732-29.722 59.459-59.407 89.19-89.103 6.108-6.113 4.982-5.458 11.141 0.532 73.723 71.869 148.716 144.927 222.413 216.806 5.704 5.499 17.306 5.775 20.352-2.345 12.216-32.43 21.181-66.913 21.181-103.716 0-145.577-124.308-262.984-269.896-262.984v0 0zM512.532 685.972c39.511 0 76.877-8.678 110.469-24.228 3.569-1.633 6.723-3.743 6.723-8.648v-198.866c0-16.589-12.012-19.83-22.81-9.042-29.732 29.706-59.453 59.412-89.129 89.114-5.151 5.018-5.545 5.018-10.588 0.026-73.661-73.129-148.639-144.927-222.976-217.395-5.745-5.473-17.306-5.755-20.408 2.33-12.221 32.44-21.181 66.929-21.181 103.757 0 145.536 124.319 262.953 269.901 262.953v0 0z" />
<glyph unicode="&#xe91f;" glyph-name="liuzhou" d="M709.561 217.722h67.663c38.813 0.558 54.052 15.52 63.921 32 9.547 16.666 10.525 36.593 10.446 40.709 0.010 0.67-0.043 0.844-0.043 0.844v370.236c-0.322 37.205-11.957 51.59-22.672 59.625-10.988 7.932-24.027 8.683-26.369 8.63v0h-36.761c-28.587-0.576-39.344-10.681-47.308-23.405-7.592-13.014-9.328-30.297-9.25-39.434 0-1.99 0.096-3.59 0.165-4.672 0.071-1.030 0.071-1.309 0.071-1.309l0.138-0.803v-442.42zM801.032 762.519h-35.286c-38.184 0.566-63.851-18.324-75.712-39.906-12.122-21.214-13.493-43.469-13.607-55.687 0-3.99 0.262-7.005 0.34-8.506v-626.050c-50.987-20.306-106.561-31.557-164.772-31.557-6.455 0-12.849 0.289-19.242 0.454 55.854 24.142 91.837 63.523 113.481 102.649 35.143 62.726 36.498 123.734 36.577 125.156v274.313c0.077 2.506-0.053 4.846-0.236 7.18v0.289c0 37.389-30.324 67.747-67.688 67.747h-125.801c-12.865 0-24.856-3.72-35.101-9.929v92.667c7.86 98.552 45.686 150.187 89.696 179.924 44.262 29.608 97.060 36.236 132.91 36.176h0.175c78.212-22.716 147.601-66.132 201.812-124.064-16.262 8.402-30.988 9.085-36.071 9.146-0.566-0.002-1.074-0.002-1.475-0.002v0zM878.282 704.534c50.943-72.637 80.954-161.041 80.954-256.442 0-176.099-101.758-328.407-249.674-401.343v138.263h67.663c48.742-0.568 78.943 23.469 92.463 48.62 13.95 25.060 14.552 49.652 14.674 56.73 0 0.74 0 1.263-0.053 1.544v369.605c0.168 16.603-2.113 30.926-6.026 43.022zM118.903 592.918c-8.165 16.427-10.926 32.978-11.876 44.962-27.076-57.687-42.264-122.004-42.264-189.9 0-67.58 15.030-131.541 41.861-188.997v120.682c-0.018 0.971-0.106 2.796-0.106 5.372 0.088 10.612 1.057 34.010 12.385 56.883 10.796 23.128 36.133 45.32 75.277 44.804h15.065v61.974h-15.004c-39.093-0.63-64.464 21.396-75.339 44.22v0zM289.274 444.835c-12.105 8.393-26.593 9.188-29.171 9.074h-18.096v-362.358c22.445-17.055 46.526-31.893 71.984-44.513v336.576c-0.393 38.060-12.786 52.723-24.717 61.221v0zM564.668 99.481c-29.336-40.453-75.843-76.986-156.44-86.393-21.188 4.962-41.669 11.519-61.477 19.396v351.129c0.367 45.694-18.016 74.392-39.047 88.33-20.778 14.036-41.424 14.665-47.601 14.779-0.392 0-0.821 0-1.135 0h-16.96v61.974h18.167c6.044 0 26.647 0.744 47.503 14.604 21.005 13.747 39.417 42.167 39.075 87.539v212.678c51.145 20.367 106.85 31.669 165.245 31.669 8.761 0 17.46-0.342 26.052-0.795-17.608-6.164-35.423-14.551-52.543-25.913-52.631-34.865-96.527-98.832-104.255-205.191l-0.026-0.683v-276.711l0.026-0.516c0.035-0.228 0.088-0.797 0.2-1.65 0.786-36.752 30.708-66.326 67.636-66.326h125.8c12.91 0 24.936 3.73 35.215 10.051v-97.529c0 0-0.061-2.9-0.679-8.84-2.099-20.944-11.015-74.578-44.754-121.602v0zM139.393 695.356c19.976 30.008 43.433 57.399 69.853 81.714v-195.558h-15.004c-27.617 0.453-37.896 11.52-46.054 26.175-7.677 14.838-9.031 33.843-8.909 41.783 0 2.515 0.087 3.475 0.087 3.475l0.027 0.629v41.782zM259.711 581.449h0.463c2.568-0.113 17.067 0.689 29.188 8.961 11.843 8.436 24.201 22.996 24.629 60.429v198.064c-25.459-12.507-49.539-27.397-71.984-44.453v-223.001h17.705zM148.205 427.305c8.193 14.962 18.498 26.037 45.976 26.604h15.065v-334.966c-26.419 24.316-49.877 51.809-69.913 81.703v180.79c0 0-0.053 1.024-0.053 3.601-0.123 7.869 1.248 27.212 8.925 42.269z" />
<glyph unicode="&#xe920;" glyph-name="hcncsy" horiz-adv-x="640" d="M319.999 476.632c176.228 0 319.093-116.8 319.093-260.877s-142.866-260.876-319.093-260.876c-176.231 0-319.093 116.8-319.093 260.876s142.862 260.877 319.093 260.877zM319.999 959.085c26.808 0 48.538-71.626 48.538-159.986 0-88.361-21.731-159.987-48.538-159.987s-48.538 71.626-48.538 159.987c0 88.36 21.731 159.986 48.538 159.986zM22.279 760.815c13.409 23.298 86.143 6.361 162.451-37.824s127.304-98.883 113.886-122.181c-13.399-23.289-86.134-6.352-162.442 37.833s-127.304 98.883-113.896 122.172zM624.657 760.815c-13.418 23.298-86.143 6.361-162.452-37.824-76.318-44.185-127.303-98.883-113.894-122.181 13.409-23.289 86.143-6.352 162.451 37.833s127.295 98.883 113.896 122.172zM560.537 471.335c-7.735-18.073-62.048-12.126-121.346 13.271-59.28 25.405-101.073 60.654-93.347 78.72 7.727 18.073 62.057 12.126 121.338-13.281 59.289-25.405 101.082-60.645 93.355-78.709zM72.523 471.335c7.731-18.073 62.057-12.126 121.342 13.271 59.285 25.405 101.078 60.654 93.352 78.72-7.735 18.073-62.053 12.126-121.338-13.281-59.289-25.405-101.082-60.645-93.357-78.709z" />
<glyph unicode="&#xe921;" glyph-name="xining" d="M500.273 336.488c-102.011 70.863-238.641 120.59-410.731 88.291 3.135-143.375 76.343-268.927 185.862-342.438 11.319 21.762 85.883 157.595 224.868 254.147zM519.632 324.49c-138.984-96.552-213.553-232.386-224.867-254.146 385.255-220.7 650.452 136.435 635.631 342.438-172.114 32.299-308.752-17.429-410.763-88.292zM523.248 554.976c102.059-71.036 238.851-120.954 411.208-88.605-2.929 143.631-76.202 269.454-185.888 343.074-11.326-21.786-86.055-157.892-225.321-254.469zM503.434 573.792c139.265 96.577 245.835 240.985 225.321 254.477-283.076 176.475-628.319-16.275-635.602-342.472 171.838-32.251 308.319 17.289 410.281 87.995z" />
<glyph unicode="&#xe922;" glyph-name="zhongguo" d="M436.877 883.715c-304.314-54.621-464.275-394.048-308.218-659.347 163.862-280.906 569.616-296.512 752.986-23.408 214.582 323.821-66.326 752.982-444.768 682.755zM460.285 715.952c0-105.338 3.904-93.635-50.717-97.536-89.734-7.802-105.341-31.213-109.242-144.355-3.901-175.568 7.802-202.877 105.338-210.678 62.426-7.802 58.525-3.901 58.525-97.533 0-89.734 0-89.734-62.426-66.33-280.906 89.738-343.328 460.374-109.242 639.843 42.918 35.11 124.848 70.224 156.061 70.224h11.702v-93.635zM612.445 801.786c261.402-74.128 351.133-409.654 163.862-608.63-54.624-54.621-156.061-109.245-198.976-105.344l-7.805 3.907-3.901 74.128c0 93.635-3.901 85.827 42.915 89.731 97.539 7.802 109.242 31.213 113.139 171.667 0 156.061-15.6 183.37-113.139 191.171l-39.014 3.901-3.901 11.706c-3.901 15.606-3.901 167.763 0 171.664s15.606 3.901 46.819-3.901zM624.147 532.582c11.706-7.802 11.706-156.058 0-167.763-11.702-11.699-218.483-11.699-226.285 0-3.901 7.805-3.901 159.962 0 167.763 7.802 3.904 218.48 3.904 226.285 0z" />
<glyph unicode="&#xe923;" glyph-name="qingdao" d="M1001.065 294.305c-49.335-38.965-175.557-113.26-330.205-16.21-184.452 115.755-335.354 31.297-357.555 17.196v385.387h321.983v-334.103c11.694-5.911 23.461-12.528 35.572-20.1 117.503-73.734 218.34-48.453 281.896-15.055v369.257l-278.992 279.321c-92.262 0-314.42 0-394.884 0l-278.88-279.321c0 0 0-362.392 0-375.554 0-13.17 4.379-23.741 12.849-32.5 8.301-8.751 212.886-223.738 231.758-244.046 18.905-20.445 45.55-5.39 58.126 1.059 142.327 73.389 278.776 17.918 321.526-3.505 10.258-4.419 20.726-9.176 31.265-14.501 209.060-106.018 368.022 27.8 368.022 27.8s0 222.896 0 244.824c0 21.921-7.812 21.64-22.482 10.050z" />
<glyph unicode="&#xe924;" glyph-name="zgny" horiz-adv-x="1026" d="M473.495 635.657h55.196c9.298 0 27.211-1.972 32.559 8.725 2.214 3.155 3.864 8.73 3.864 12.584 2.667 6.29 0.070 20.066 0.070 27.070v187.885c0 7.929 1.484 71.468-1.811 71.468h-108.21c-3.235 0-1.811-30.652-1.811-35.699v-149.488c0-34.532-3.225-70.784 0.228-105.159 1.586-9.928 10.169-16.59 19.916-17.385zM632.034 933.018c-0.227-51.956-0.227-104.103-0.523-156.19-0.161-48.037 6.033-100.652-0.659-148.090-4.081-30.496-76.505-10.768-97.356-17.303-21.938-7.145-12.967-48.194-12.967-64.622v-100.582c8.8 18.386 35.060 12.252 51.518 12.252 27.754 0 60.545-4.951 87.77 0.382 11.227 2.3 16.488 11.965 16.488 22.576-3.608 2.757-0.070 34.392-0.070 39.895v285.457c139.203-64.626 230.043-208.237 230.043-361.433 0-195.2-148.563-367.28-342.575-393.479v206.678c0 4.111-1.026 10.3 0 14.25 2.521 8.8-1.429 4.322 5.817 7.004 12.112 4.79 121.034-13.138 106.87 22.18-5.747 9.499-0.156 37.968-0.156 49.374 0 34.848 0.070 69.607-0.14 104.521 1.484-27.512-32.020-21.379-49.948-21.379-27.286 0-57.426 3.693-84.395 0-27.91 0-21.224-36.101-21.224-53.888v-100.334c-4.634 0.055-13.45-1.187-17.701 0.71-5.817 2.667-4.946 1.555-4.946 10.511v78.974c0 14.778 3.049 33.274-0.403 47.649-4.332 24.307-42.789 16.277-59.458 16.121-25.787-0.145-57.31-5.192-82.568 0.569-9.53 2.581-13.761 9.983-13.293 19.653v-117.669c0-12.805-2.525-27.599 0.317-40.247 4.161-22.809 35.156-16.745 51.513-16.745h52.303c11.010 0 7.060-9.771 7.060-19.513v-208.322c-193.856 26.26-342.473 198.183-342.473 393.383 0 153.423 91.619 297.336 231.28 361.433v-253.536c0-24.232-0.085-48.379-0.085-72.585 1.429-13.379 7.648-20.538 21.152-22.189h65.763c18.804 0 58.592 9.283 68.892-12.252v114.241c0 24.79 5.504 50.593-25.333 52.545-17.385 0.941-35.211-0.085-52.616 0-34.215 0.070-32.63 15.246-32.63 46.955 0 91.152 0.156 182.375 0.156 273.602-232.709-58.281-394.876-281.164-378.448-520.546 19.668-285.572 284.299-500.581 567.828-462.2 256.061 34.688 447.025 268.097 432.222 525.512-12.338 215.708-167.578 403.748-377.027 456.675z" />
<glyph unicode="&#xe925;" glyph-name="hanya" horiz-adv-x="1078" d="M333.018 381.507c17.788-26.104 23.842-34.99 42.156-61.866 7.507 149.428 144.692 122.704 227.808 184.053 71.005-25.661 104.473-88.599 107.857-172.547 5.697-140.288-59.852-288.236-152.38-346.472 10.503 92.985 29.098 187.394 27.999 281.586-0.494 40.057-37.743 109.228-66.135 113.545-71.196 10.865-66.594-54.053-69.186-107.075-1.079-22.48-22.372-43.959-34.479-65.881-22.821 14.53-57.097 24.173-65.836 44.7-14.054 32.981-11.214 73.14-17.803 129.957l-0.001-0.001zM0.041 671.641c374.963-43.348 728.018-30.847 1067.49 123.7 3.428-9.598 6.895-19.199 10.321-28.817-42.319-24.769-81.856-62.308-127.398-72.145-196.573-42.523-394.786-77.656-592.712-113.826-50.295-9.182-101.805-11.531-152.6-18.239-94.653-12.474-153.943 35.73-205.106 109.329l0.005-0.002zM632.207 852.859c-54.47-29.812-89.949-64.801-122.525-62.282-27.558 2.125-51.747 47.677-77.426 74.033 33.655 31.437 67.301 62.87 100.953 94.303 27.057-29.003 54.137-58.006 98.998-106.054h-0.001z" />
<glyph unicode="&#xe926;" glyph-name="nycz" horiz-adv-x="1078" d="M444.334-17.134c226.978 274.012-8.769 463.793-88.895 681.324-192.593-112.836-156.35-308.1 85.51-494.157-55.64-184.418-103.833-201.751-241.747-79.553-106.942 94.746-190.071 209.433-198.324 356.293-11.235 199.9 166.356 420.808 377.145 479.876 73.264 20.535 149.255 31.276 242.341 32.647-209.849-293.868 71.511-465.058 127.512-688.913 185.923 99.975 113.98 336.281-16.069 426.108-33.558 23.156-76.154 65.095-76.331 98.625-0.509 92.873 81.857 134.621 164.038 85.241 151.128-90.859 250.785-218.583 257.222-403.708 7.017-202.069-99.494-340.372-262.55-435.316-106.292-61.901-224.583-105.571-369.853-58.467z" />
<glyph unicode="&#xe927;" glyph-name="hnncxys" d="M1010.406 503.276c0-38.6 0-77.194 0-115.789-0.312-1.065-0.732-2.115-0.916-3.205-2.314-13.763-4.070-27.648-6.968-41.293-20.255-95.247-65.019-177.372-133.484-246.451-46.372-46.781-100.224-82.673-161.137-107.848-46.94-19.405-95.729-31.273-146.376-35.436-7.009-0.573-14.013-1.26-21.023-1.894-14.152 0-28.298 0-42.455 0-1.889 0.292-3.768 0.676-5.663 0.845-11.361 1.024-22.758 1.7-34.079 3.041-52.936 6.262-103.506 20.946-151.496 44.068-87.854 42.337-157.629 104.996-208.788 188.052-45.379 73.677-69.13 154.030-72.428 240.42-1.418 37.233 1.454 74.194 8.484 110.802 13.532 70.477 41.042 135.040 82.79 193.372 51.236 71.588 116.936 125.916 196.92 162.765 48.691 22.431 99.773 36.362 153.129 41.82 10.368 1.060 20.751 1.92 31.13 2.872 14.152 0 28.303 0 42.455 0 6.851-0.625 13.691-1.311 20.547-1.864 53.274-4.311 104.484-17.034 153.492-38.292 83.118-36.055 151.434-90.778 204.744-164.024 44.39-60.989 73.093-128.748 86.313-203.028 1.71-9.636 3.21-19.292 4.808-28.933zM701.926 445.64c2.191 2.34 4.26 4.557 6.339 6.758 32.65 34.642 56.806 74.061 68.204 120.73 8.259 33.812 10.23 68.224 10.501 102.856 0.046 5.74-1.787 9.544-6.615 12.211-21.622 11.935-44.728 20.132-69.207 22.252-19.763 1.71-39.834 1.024-59.709 0.108-26.097-1.203-51.456-6.927-74.255-20.029-18.345-10.547-35.773-22.712-53.34-34.56-3.896-2.627-6.369-2.903-9.846 0.184-3.348 2.975-7.199 5.391-10.865 8.003-21.263 15.124-43.023 29.332-68.132 37.519-18.796 6.129-38.17 8.801-57.815 9.59-29.455 1.183-58.921 1.664-87.076-9.19-11.059-4.265-21.888-9.144-32.655-14.111-4.71-2.171-6.615-6.113-6.538-11.745 0.369-26.701 1.562-53.315 5.796-79.734 7.229-45.066 24.791-85.591 53.427-121.17 8.648-10.742 17.961-20.946 27.049-31.488-0.010-0.031-0.087-0.358-0.287-0.579-1.393-1.556-2.806-3.092-4.234-4.618-29.686-31.601-52.695-67.185-65.075-109.107-10.854-36.746-13.076-74.511-13.875-112.522-0.169-8.125 2.99-12.549 9.58-15.944 19.149-9.866 39.342-17.572 60.59-19.753 21.309-2.186 43.003-1.756 64.471-0.983 24.596 0.886 48.323 6.63 70.63 17.449 20.639 10.015 39.265 23.194 57.59 36.823 2.698 2.012 4.613 2.458 7.455 0.169 4.869-3.937 10.081-7.455 15.206-11.059 20.961-14.751 42.629-28.175 67.466-35.589 18.918-5.652 38.333-7.951 57.989-8.586 27.039-0.865 54.108-1.26 79.985 8.366 12.442 4.623 24.53 10.22 36.654 15.652 4.157 1.859 5.632 5.458 5.601 10.25-0.179 25.421-1.321 50.739-4.936 75.955-7.188 50.166-27.172 94.484-59.914 133.084-6.528 7.68-13.358 15.124-20.157 22.81zM519.649 600.136c18.514-86.922 77.445-133.473 161.925-154.604-8.98-2.688-17.203-4.966-25.308-7.619-31.974-10.481-61.071-25.964-85.243-49.802-16.804-16.563-29.722-35.84-38.666-57.62-4.608-11.233-8.166-22.907-12.058-33.976-2.668 8.177-5.233 17.111-8.468 25.795-15.498 41.651-42.696 73.38-81.3 95.401-22.62 12.908-46.776 21.75-72.991 27.812 6.815 2.053 12.785 3.738 18.668 5.668 6.098 1.997 12.16 4.127 18.161 6.39 24.561 9.272 47.032 22.124 66.739 39.578 18.243 16.148 32.307 35.517 41.933 57.764 6.513 15.058 11.387 30.822 16.609 45.215z" />
<glyph unicode="&#xe928;" glyph-name="yndlynscz" horiz-adv-x="1138" d="M1088.251-61.44c-7.968 0-14.272 0-20.565 0-91.775 0-183.553 0.031-275.327-0.114-6.457-0.017-10.657 1.717-14.63 7.359-28.862 41.042-58.149 81.799-87.351 122.589-19.327 26.998-39.12 53.687-58.009 80.969-15.861 22.913-26.518 48.297-30.661 75.946-4.803 32.029 2.263 61.761 18.466 89.689 14.444 24.922 35.319 43.908 55.763 63.593 25.957 24.978 50.51 51.423 75.742 77.173 36.776 37.533 73.699 74.919 110.37 112.551 16.414 16.829 29.659 35.866 34.406 59.328 5.642 27.885-2.9 52.906-19.685 74.65-48.631 62.968-97.944 125.399-147.023 188.025-6.637 8.475-13.425 16.829-20.77 26.021 17.554 14.493 34.546 28.511 52.010 42.932 11.495-12.613 22.569-24.742 33.614-36.905 55.030-60.614 110.085-121.203 165.039-181.871 25.605-28.25 50.99-56.691 76.547-84.973 19.148-21.184 38.681-42.026 57.572-63.432 34.276-38.845 50.77-83.388 39.872-135.356-5.568-26.549-18.341-50.12-35.149-71.411-31.866-40.375-63.766-80.734-95.688-121.074-15.021-18.97-30.661-37.467-45.072-56.879-21.543-29.009-27.6-60.679-15.087-95.534 11.366-31.647 31.71-56.959 54.655-80.512 28.4-29.147 57.261-57.846 85.902-86.758 1.377-1.392 2.55-2.996 5.065-6.010l-0.001 0.005zM49.172-58.624c11.633 11.145 23.604 21.959 34.839 33.487 26.77 27.496 53.767 54.784 79.543 83.199 16.943 18.67 28.862 40.881 34.928 65.581 7.8 31.768-0.407 60.33-20.208 85.584-42.394 54.085-84.802 108.146-127.914 161.653-19.24 23.885-36.688 48.532-44.721 78.471-9.137 34.040-6.204 67.081 8.875 99.336 14.421 30.85 38.681 53.717 60.729 78.413 33.948 38.013 68.3 75.676 102.543 113.439 42.532 46.895 85.138 93.726 127.703 140.598 22.666 24.954 45.291 49.956 67.959 74.913 0.83 0.91 1.905 1.605 3.517 2.924 16.885-13.979 33.642-27.855 51.218-42.411-6.457-8.362-12.474-16.267-18.604-24.083-49.712-63.408-99.727-126.595-149.089-190.278-30.295-39.079-28.015-86.815 6.409-124.153 27.041-29.325 55.704-57.136 83.56-85.716 37.207-38.177 74.382-76.387 111.46-114.683 15.716-16.234 32.681-31.58 46.326-49.418 21.445-28.015 32.072-60.614 28.496-96.25-2.711-26.974-11.757-52.507-27.080-74.863-29.39-42.873-59.907-84.983-90.039-127.344-20.281-28.529-40.806-56.879-60.948-85.506-2.9-4.122-6.171-5.789-10.82-5.756-0.773 0.017-1.548-0.017-2.32-0.017-84.813 0.081-169.615 0.162-254.427 0.204-11.089 0.017-22.168-0.13-33.251-0.13-2.434 0-4.869 0.299-7.303 0.479-0.464 0.79-0.91 1.548-1.377 2.327l-0.003-0.001zM701.539 674.64c-15.739 0-31.46 0.276-47.182-0.139-6.245-0.162-10.599 1.887-14.914 6.245-24.124 24.327-48.645 48.273-72.663 72.705-4.566 4.65-6.952 3.926-11.048-0.188-29.426-29.586-59.012-59.029-88.686-88.369-4.023-3.975-4.194-6.896-0.146-10.894 29.824-29.521 59.58-59.116 89.183-88.868 3.818-3.836 6.268-3.94 10.068-0.114 24.863 25.027 49.819 49.964 75.025 74.642 2.597 2.55 7.042 4.469 10.666 4.51 32.477 0.365 64.971-0.017 97.447 0.464 7.719 0.114 9.265-2.734 8.46-9.405-2.401-19.816-6.936-39.089-15.135-57.31-17.602-39.129-44.364-70.336-81.375-92.408-21.69-12.93-45.032-21.495-69.954-25.556-46.088-7.514-90.023-0.431-130.623 22.405-47.864 26.917-80.098 66.908-95.688 120.001-9.2 31.353-10.731 63.18-3.874 94.799 14.94 68.928 54.971 117.918 120.099 145.89 34.553 14.843 70.717 19.394 107.502 13.263 56.993-9.501 102.765-37.89 135.786-85.918 18.008-26.191 28.668-55.077 33.045-86.496 0.968-7.002-0.328-9.711-8.028-9.459-15.965 0.538-31.964 0.162-47.947 0.162-0.017 0.006-0.017 0.023-0.017 0.031l0.001 0.007z" />
<glyph unicode="&#xe929;" glyph-name="suzhou" d="M514.641 959.040c119.568-0.5 225.7-71.291 271.549-183.941 10.336-25.404 23.487-41.235 49.925-51.834 116.434-46.636 187.868-154.355 187.309-277.221-0.554-122.212-74.533-227.434-190.293-276.074-17.347-7.281-34.951-25.313-42.504-42.696-50.95-117.202-154.623-190.339-276.003-191.057-124.355-0.718-229.28 71.427-281.052 189.313-8.060 18.379-26.637 37.333-44.992 45.102-113.712 48.201-187.424 153.040-188.133 273.508-0.725 124.432 69.029 231.050 185.244 278.41 25.755 10.494 40.685 24.774 51.221 50.67 47.423 116.662 153.269 186.328 277.727 185.815l0.001 0.006zM788.211 172.076c-115.813 186.111-114.045 366.831 0.594 553.005-186.408-116.288-368.047-115.148-554.291-0.279 117.039-186.611 115.086-368.206 0.587-554.169 186.503 116.189 367.26 115.507 553.109 1.443h0.001z" />
<glyph unicode="&#xe92a;" glyph-name="cqncsy" d="M552.079 959.232c27.985-5.039 56.426-8.327 83.886-15.409 146.235-37.728 256.751-122.935 328.054-255.873 19.487-36.353 33.085-77.207 26.146-120.838-0.851-5.345-0.831-11.146-3.037-15.885-16.355-35.127-32.036-70.663-50.434-104.708-7.299-13.509-20.781-22.742-38.648-23.927-8.654-0.586-17.581-6.067-25.213-11.105-13.795-9.083-28.23-13.141-44.721-11.779-17.145 1.409-34.358 2.009-51.55 2.458-14.101 0.361-25.84 3.112-25.615 20.931-12.61 1.729-24.036 3.282-35.475 4.855-0.531-1.253-1.062-2.513-1.593-3.765-1.226 3.044-3.459 6.074-3.507 9.131-0.34 22.395-13.761 37.258-25.030 55.445-26.235 42.345-65.774 73.707-89.667 117.597-10.316 18.949-27.277 34.263-40.997 51.401-3.010 3.772-5.222 8.232-7.558 12.494-3.547 6.462-6.101 12.658-16.151 12.045-4.262-0.266-9.39 6.162-13.373 10.275-7.742 8-13.563 8.464-19.228-2.308-7.592-14.428-16.484-27.174-33.268-33.493-9.131-3.445-16.416-10.288-16.042-23.784 0.184-6.584-9.267-14.932-16.226-19.8-7.177-5.018-14.176-7.762-12.767-18.813 0.422-3.275-5.311-7.572-8.606-11.037-7.115-7.503-14.864-14.449-21.598-22.265-4.126-4.787-6.571-10.99-10.302-16.178-10.588-14.741-20.611-28.938-23.361-48.309-1.988-14.026-10.54-27.338-17.479-40.268-1.546-2.88-8.572-2.812-14.312-4.46 0.565-3.241 1.355-7.721 2.24-12.78-4.814-0.49-9.117-0.94-10.847-1.117-6.966-10.438-12.712-19.344-18.759-28.060-15.422-22.184-31.001-44.244-46.464-66.401-3.37-4.828-6.966-9.587-9.567-14.83-1.954-3.949-4.787-10.132-3.139-12.624 3.166-4.8 6.285-8.048 16.090-5.161 26.507 7.817 54.369 13.216 81.939 14.564 26.037 1.266 52.626-2.417 78.541-6.584 24.036-3.854 48.071-9.573 71.126-17.37 57.597-19.467 116.46-34.855 176.549-41.201 37.864-3.99 78.003-4.616 113.859 16.198 8.838 5.134 19.61 6.877 28.638 11.745 8.641 4.671 15.878 11.848 24.267 17.063 6.571 4.072 13.945 6.85 20.999 10.104 2.254 1.035 5.066 1.253 6.897 2.737 13.979 11.344 27.78 22.912 41.848 34.589 3.33-5.556 5.978-9.975 9.505-15.865-6.809-5.148-14.905-10.84-22.401-17.233-2.036-1.729-2.233-5.597-3.275-8.498 3.418-0.293 8.089-2.152 10.023-0.613 6.857 5.536 13.305 11.759 18.922 18.541 13.162 15.906 25.581 32.438 38.756 48.316 1.92 2.329 6.353 2.567 9.614 3.779 0.463-3.908 2.669-8.899 1.042-11.514-3.806-6.155-9.437-11.187-14.912-17.315 2.56-4.201 4.93-8.089 8.709-14.285 12.705 23.511 24.492 45.32 36.278 67.129 1.484-0.463 2.969-0.919 4.439-1.369-1.307-7.517-2.615-15.027-3.69-21.196 8.892 7.953 18.534 16.587 28.175 25.213 1.253-0.334 2.506-0.667 3.759-0.987-1.552-14.122-2.41-28.352-4.753-42.345-36.407-217.539-207.128-387.285-425.102-422.923-253.926-41.521-503.97 117.72-574.068 365.579-83.089 293.84 107.806 595.006 409.033 645.29 14.462 2.41 28.965 4.542 43.455 6.795 26.643 0 53.287 0 79.944 0zM472.938 288.6c0.123-0.994 0.232-2.009 0.354-3.003 14.231-6.421 27.971-14.428 42.787-18.908 26.112-7.898 52.776-14.081 79.419-20.005 7.143-1.593 15.082 0.388 22.647 0.715-1.852 13.005-13.298 11.024-21.571 13.087-5.549 1.382-11.739 0.211-17.635 0.225-2.935 0.014-6.114-0.626-8.743 0.293-13.577 4.746-26.745 10.867-40.547 14.68-18.663 5.182-37.783 8.702-56.712 12.917zM810.532 267.765c-1.144 2.329-2.295 4.671-3.439 7.006-35.992-11.779-71.984-23.579-107.976-35.359 0.449-1.729 0.906-3.473 1.355-5.202 22.592 3.139 45.191 6.291 69.077 9.614 12.44 7.272 26.711 15.599 40.983 23.94zM646.621 249.946c-6.101-11.371-5.611-13.448 4.038-18.221 15.055-7.435 18.834-5.903 26.487 10.159-9.696 2.553-19.521 5.148-30.524 8.062zM868.49 304.070c-16.866-6.278-31.001-11.037-44.626-16.981-2.982-1.301-4.133-6.823-6.128-10.397 1.552-1.239 3.091-2.472 4.644-3.711 9.355 18.677 38.232 5.529 46.11 31.090zM347.361 307.672c-35.726 12.951-52.19 11.371-56.814 0 18.554 0 37.687 0 56.814 0zM464.060 284.916c-13.584 17.873-20.434 19.685-38.137 11.834 12.12-3.759 23.157-7.177 38.137-11.834z" />
<glyph unicode="&#xe92b;" glyph-name="gdsdncsy" d="M727.135 133.127c-18.368 2.878-36.767 5.568-55.086 8.668-85.762 14.503-139.444 78.815-201.917 129.701-27.893 22.704-55.744 46.081-86.267 64.847-54.825 33.703-113.321 36.108-168.611 2.342-44.751-27.309-86.079-60.218-135.137-95.052-11.018 37.949-22.903 75.163-31.877 113.060-1.741 7.333 5.759 19.697 12.55 25.775 58.385 52.163 123.287 93.020 200.799 110.717 79.636 18.188 147.366-9.669 209.118-56.297 40.061-30.26 77.703-63.703 116.893-95.139 117.62-94.338 243.201-110.5 377.636-37.717 5.165 2.802 11.011 4.345 16.548 6.468 3.622-2.524 7.251-5.039 10.868-7.55-27.346-49.734-49.841-102.999-82.873-148.621-175.956-243.090-541.245-260.7-743.541-38.935-21.17 23.203-18.181 36.506 3.294 55.985 69.21 62.771 135.665 69.104 223.285 22.973 60.125-31.653 120.784-63.559 184.239-87.198 50.132-18.691 102.962-10.656 150.702 14.26-0.211 3.895-0.416 7.805-0.627 11.712zM52.59 578.817c36.288 165.721 196.418 309.839 378.141 342.274 175.353 31.293 376.078-45.92 458.273-176.285-53.533-79.568-136.138-103.025-222.050-62.026-66.033 31.51-130.073 67.755-197.711 95.227-52.518 21.332-107.206 14.23-158.419-21.183 8.599-2.436 17.082-6.369 25.819-7.071 61.654-4.965 113.383-31.15 159.197-71.508 39.618-34.897 78.555-70.844 120.51-102.745 86.837-66.003 154.418-66.356 243.835-3.356 30.423 21.431 58.726 45.882 96.773 75.863 11.378-43.042 22.891-82.455 31.348-122.523 1.436-6.773-8.4-19.114-16.125-24.122-48.381-31.391-95.095-67.035-147.18-90.677-91.883-41.7-179.039-21.201-257.3 39.116-45.9 35.363-89.347 73.926-135.604 108.79-110.643 83.395-228.319 92.995-351.749 29.609-6.829-3.505-13.831-6.679-20.834-9.825-1.031-0.454-2.535 0.117-6.923 0.442z" />
<glyph unicode="&#xe92c;" glyph-name="gzncsy" horiz-adv-x="555" d="M325.921 834.459c0-22.345 0.776-44.719-0.197-67.014-1.146-26.443-20.98-45-46.073-44.842-30.033 0.185-50.233 16.979-50.743 45.252-0.833 47.046-0.865 94.147 0.663 141.165 0.899 27.684 25.74 50.418 50.631 50.137 21.25-0.236 43.454-23.896 44.932-50.552 1.354-24.649 0.286-49.423 0.286-74.145 0.169 0 0.337 0 0.5 0l0.001-0.002zM324.264 84.342c0-22.369 0.713-44.753-0.175-67.093-1.198-29.825-19.092-48.046-45.411-47.882-30.23 0.197-47.371 15.797-48.057 47.343-1.012 46.299-0.697 92.642 0.146 138.956 0.495 27.573 18.164 43.415 46.124 43.927 26.549 0.483 45.365-16.849 47.096-43.381 0.106-1.601 0.18-3.192 0.18-4.799 0.011-22.362 0.005-44.719 0.005-67.081 0.022 0.011 0.056 0.011 0.090 0.011l0.002-0.001zM50.302 95.486c-23.706 1.506-38.519 14.477-45.849 34.294-6.744 18.231-0.511 36.609 14.995 46.906 42.386 28.156 85.616 55.177 129.723 80.547 20.547 11.813 46.27 2.58 59.006-16.584 11.606-17.451 9.526-45.849-9.122-58.252-44.314-29.46-90.398-56.257-135.961-83.818-3.855-2.333-9.155-2.27-12.791-3.091zM552.185 148.5c0.175-37.143-36.233-63.018-62.833-48.507-45.315 24.728-89.118 52.402-132.279 80.766-18.922 12.449-22.47 39.846-11.802 57.948 11.577 19.681 37.784 30.792 58.011 19.277 45.562-25.937 90-54.037 133.538-83.267 9.143-6.148 12.449-20.957 15.365-26.218h0.001zM166.934 664.81c-5.142 1.916-14.601 4.080-22.655 8.689-38.009 21.733-75.967 43.595-113.295 66.468-29.169 17.878-35.417 40.634-20.132 66.121 14.416 24.032 38.469 29.652 66.413 13.725 38.711-22.076 77.040-44.849 114.992-68.194 19.187-11.808 29.972-29.15 22.902-52.537-6.407-21.176-21.261-32.939-48.226-34.271l0.001-0.001zM551.606 772.739c-4.788-6.182-11.447-21.046-22.923-28.466-40.072-25.914-81.418-49.957-123.063-73.302-22.761-12.751-47.76-5.12-60.535 15.607-13.579 22.053-10.622 46.247 12.117 60.742 42.904 27.336 86.628 53.666 131.678 77.259 28.14 14.731 63.895-11.882 62.726-51.839zM166.39 287.973c-2.007 0.355-7.357 0-11.314 2.163-45.511 24.97-91.495 49.21-135.859 76.079-20.682 12.533-23.384 37.026-11.212 57.223 12.629 20.946 37.447 30.759 57.803 20.075 43.173-22.655 85.926-46.18 128.053-70.723 18.771-10.931 27.758-28.617 21.486-51.131-6.301-22.616-22.407-34.114-48.956-33.686h-0.001zM388.709 288.17c-28.219-0.692-42.358 11.505-49.192 32.753-6.845 21.261 0.939 39.56 18.568 50.053 43.24 25.763 87.516 49.878 132.145 73.19 19.086 9.964 43.511-0.252 55.926-20.052 11.527-18.395 11.121-43.28-6.615-54.149-46.894-28.736-95.682-54.403-143.89-80.974-3.197-1.765-7.847-0.91-6.941-0.821l-0.001 0.001zM167.642 640.835c20.773-3.265 35.030-11.932 42.179-31.517 8.52-23.363 0.292-42.217-18-54.424-39.751-26.521-80.71-51.323-122.040-75.32-22.84-13.269-48.108-4.962-62.248 17.411-12.887 20.389-9.076 44.14 12.83 58.663 41.183 27.292 83.447 52.964 125.643 78.681 6.474 3.956 14.961 4.592 21.637 6.508l-0.001-0.001zM554.029 528.923c1.32-39.29-36.693-66.587-64.052-51.581-44.646 24.487-87.909 51.755-130.16 80.211-21.109 14.212-23.959 42.527-11.020 61.894 14.066 21.064 39.51 27.050 63.153 12.82 40.285-24.251 80.451-48.788 119.32-75.208 11.38-7.744 18.17-22.256 22.761-28.135l-0.001-0.001z" />
<glyph unicode="&#xe92d;" glyph-name="csncsy" horiz-adv-x="668" d="M590.592 188.191c11.986-5.894 21.028-10.341 30.131-14.817-1.204-4.125-1.161-7.468-2.81-9.175-37.195-38.152-74.843-75.858-111.849-114.176-75.388-78.073-166.385-108.806-278.497-91.528 38.284 18.398 75.198 31.041 106.478 52.075 119.612 80.466 189.796 195.92 223.859 333.929 38.725 156.943 49.859 313.14-22.502 465.098-3.825 8.029-4.623 17.593-6.245 26.552-10.286 57.11-42.374 78.423-92.709 50.724-41.754-22.971-81.806-54.23-113.029-90.15-111.45-128.224-168.966-281.181-186.438-448.742-4-38.417 1.006-79.933 11.565-117.275 22.306-78.844 88.527-99.311 151.371-47.312 27.586 22.809 51.864 52.284 70.179 83.17 73.025 123.114 102.248 256.556 84.703 399.422-1.734 14.092-3.091 28.229-4.628 42.348 5.265 2.308 10.526 4.603 15.796 6.909 8.592-14.665 21.978-28.403 25.068-44.146 43.487-221.451-8.592-420.143-148.17-595.841-19.348-24.349-46.593-44.62-73.989-60.005-87.003-48.817-184.335-21.782-221.614 70.318-23.893 59.025-28.783 126.394-37.599 190.663-6.735 49.083-6.266 99.149-9.244 153.342 49.746-0.091 49.802 49.006 64.207 88.095 49.053 133.073 115.303 255.777 222.017 352.375 56.536 51.159 119.995 89.513 199.599 89.905 68.185 0.328 89.87-21.957 105.317-88.382 18.23-78.444 47.522-154.504 63.081-233.354 30.487-154.469 4.064-303.105-64.046-450.029l-0.001 0.008z" />
<glyph unicode="&#xe92e;" glyph-name="shanqiu" horiz-adv-x="2958" d="M3.711 6.521c0 105.944 0 217.45-0.003 332.128 983.556 0 1964.914 0 2946.814 0 15.825-39.334-1.742-47.893-37.576-51.206-220.204-20.321-436.071-61.695-637.728-156.087-81.388-38.096-157.322-87.888-236.849-132.996-670.441 408.024-1348.203 394.589-2034.66 8.157l0.003 0.003zM804.761 827.282c84.735 0 165.846 3.903 246.416-1.079 83.861-5.16 125.276-92.873 90.993-176.788-6.883-16.853-7.372-41.268-0.504-57.965 38.811-94.548-15.704-180.815-117.573-181.514-71.629-0.469-143.258-0.089-219.333-0.089 0 138.762 0 274.879 0 417.438v-0.003zM905.146 501.080c41.303 0 77.223-3.328 111.959 1.586 14.746 2.074 27.048 21.416 40.471 32.923-12.095 11.747-23.126 31.947-36.459 33.584-37.56 4.618-76.074 1.602-115.987 1.602 0.016-25.079 0.016-44.459 0.016-69.695zM905.302 669.954c40.729 0 79.247-2.441 117.151 1.395 12.446 1.257 33.897 20.65 32.521 28.427-2.547 14.36-17.74 35.974-29.732 37.436-39.041 4.758-79.020 1.777-119.924 1.777-0.016-25.236-0.016-44.565-0.016-69.032v-0.003zM1319.498 781.272c59.081 37.627 113.858 54.116 175.381 41.444 56.363-11.625 102.389-40.381 117.467-95.123 14.064-51.151 24.033-108.072 16.505-159.623-21.853-149.216-161.072-206.957-288.173-125.254-6.344 4.062-12.356 8.61-21.298 14.88-8.313-60.629-49.932-33.967-83.548-38.409 0 180.241 0 357.52 0 538.25 26.075 0 51.64 0 83.673 0 0-55.632 0-111.94 0-176.163l-0.006-0.003zM1317.807 619.067c-1.375-97.966 27.693-135.156 106.311-136.145 71.683-0.887 118.109 43.292 119.886 114.065 2.039 83.392-44.632 150.63-105.35 151.782-79.387 1.497-119.628-41.686-120.847-129.699v-0.003zM2923.598 808.649c-65.528-66.558-125.432-127.363-186.499-189.39 67.289-63.648 134.894-127.574 208.058-196.765-75.567-8.715-137.613-12.844-188.034 49.897-36.354 45.28-84.352 81.215-134.722 128.375 0-65.528 0-120.777 0-179.124-32.955 0-61.468 0-92.649 0 0 178.62 0 355.88 0 536.226 28.861 0 56.273 0 88.536 0 0-104.636 0-210.024 0-330.194 30.153 28.427 50.788 47.58 71.071 67.082 20.286 19.466 40.174 39.37 60.355 58.909 66.664 64.535 66.664 64.519 173.878 54.987l0.006-0.003zM341.383 825.677c0-29.767 0-55.702 0-87.907-58.402 0-115.565 0.016-172.729-0.016-14.032 0-30.153 4.113-41.565-1.43-14.536-7.059-25.271-21.994-37.643-33.533 12.583-13.004 23.931-35.361 37.994-37.241 39.858-5.297 80.868-1.308 121.354-2.649 72.309-2.368 113.472-48.748 113.389-126.058-0.089-77.555-40.972-124.577-113.351-126.042-80.673-1.637-161.4-0.367-244.553-0.367 0 31.232 0 58.226 0 90.208 70.008 0 136.653 0.14 203.316-0.067 29.506-0.067 59.742 0.82 61.086 40.119 1.375 40.19-29.26 41.983-58.628 42.264-32.729 0.329-65.547-1.34-98.189 0.329-69.836 3.555-106.834 40.365-110.737 107.792-4.078 70.394 32.85 128.359 96.517 133.168 80.134 6.012 161.087 1.43 243.749 1.43h-0.010zM1691.344 727.523c-7.285 22.622-13.349 41.425-20.388 63.195 71.613 29.068 141.535 48.608 216.317 39.354 71.211-8.801 115.428-57.703 116.784-129.453 0.992-51.48-3.887-103.123-1.899-154.517 1.152-30.639 10.579-60.964 17.36-97.302-55.144-50.245-55.144-50.245-88.916-13.419-60.457-12.426-113.998-29.732-168.354-32.955-61.066-3.625-103.713 36.37-113.526 90.799-10.422 57.859 17.864 119.261 74.176 136.027 60.495 18.005 124.488 24.224 190.558 36.252 20.896 45.592-23.596 96.342-76.247 93.744-24.748-1.219-49.703-4.043-73.93-9.219-22.533-4.777-44.252-13.63-71.926-22.501l-0.010-0.003zM1903.618 600.61c-43.167-9.446-87.646-14.829-128.253-30.272-16.31-6.188-36.721-38.186-32.783-52.023 5.352-18.802 30.185-40.589 50.312-45.206 76.477-17.567 126.543 36.529 110.718 127.504l0.006-0.003zM2170.008 420.771c-29.576 0-58.472 0-93.955-0.003 0 129.792 0 258.323 0 395.374 29.068-5.699 62.324-12.216 111.541-21.872 38.096 27.17 97.388 48.295 166.685 30.029 59.64-15.704 99.53-51.605 102.494-112.393 4.704-95.959 1.257-192.351 1.257-291.016-29.889 0-57.285 0-91.533 0 0 43.24 0 86.251 0 129.265 0 32.767 0.574 65.547-0.14 98.279-0.992 43.292-5.278 86.181-53.819 104.202-38.604 14.344-102.967-7.317-129.718-44.929-8.887-12.529-12.044-31.388-12.289-47.424-1.203-79.036-0.523-158.126-0.523-239.514v0.003zM742.574 827.716c0-32.014 0-56.675 0-89.091-54.116 0-108.002 0.227-161.892-0.051-56.535-0.297-80.204-19.048-87.247-74.801-3.66-29.068-3.715-59.484 0.418-88.447 7.356-51.553 37.069-75.203 89.599-75.88 51.206-0.625 102.44-0.14 157.306-0.14 0-29.889 0-55.597 0-81.962-77.013 0-156.974-9.184-233.693 2.563-77.676 11.919-124.734 104.202-121.073 204.239 5.071 138.622 82.958 213.914 211.751 204.152 46.237-3.52 92.962-0.574 144.825-0.574l0.006-0.006z" />
<glyph unicode="&#xe92f;" glyph-name="luohe" horiz-adv-x="1078" d="M893.34 838.994c-90.199 66.437-184.448 64.612-276.425 20.171-153.264-74.048-283.128-178.107-376.313-323.15-51.223-79.724-77.034-167.632-76.858-262.401 0.042-25.007 3.264-50.673 9.496-74.876 17.094-66.371 66.123-104.15 134.93-107.421 62.859-2.974 121.771 14.072 180.423 33.941 100.27 33.965 178.863 99.194 251.025 173.29 80.473 82.619 140.183 178.657 179.214 287.335 6.093 16.986 11.358 34.267 17.826 51.283 3.482-27.074 0.979-53.713-4.83-80.183-17.826-81.017-56.869-151.97-104.398-218.746-51.555-72.428-111.416-137.717-178.676-195.51-51.108-43.897-110.153-76.526-171.089-105.238-56.028-26.397-114.1-46.46-175.919-53.822-73.401-8.759-143.151 0.931-203.67 46.762-61.523 46.587-90.193 111.223-96.449 186.739-6.752 81.465 13.558 158.178 41.69 233.549 74.985 200.86 215.433 342.209 400.97 443.126 65.095 35.41 133.709 58.464 207.757 63.947 62.889 4.66 123.258-3.143 176.385-40.687 27.54-19.452 48.46-44.809 64.914-78.11zM556.843 294.831c1.155 42.174-20.673 66.812-58.132 80.516-46.103 16.859-75.958-7.429-105.317-34.31-18.823-17.227-34.147-38.227-51.942-56.669-12.803-13.256-26.597-25.69-40.935-37.284-7.344-5.936-17.536-9.847-26.446-3.391-9.635 6.988-10.778 17.862-8.033 29.009 4.715 19.101 16.841 33.633 29.613 47.789 28.561 31.626 58.065 62.478 85.267 95.24 27.328 32.913 49.645 69.333 64.316 109.911 8.807 24.372 14.64 49.125 9.696 75.365-1.378 7.308 11.219 19.899 22.124 23.151 10.203 3.040 16.81-1.408 21.036-10.318 1.336-2.811 2.061-5.966 2.714-9.043 5.785-27.268 19.736-38.342 47.384-40.342 21.132-1.529 39.031 4.050 53.895 18.872 12.289 12.253 23.943 25.14 36.305 37.326 4.346 4.292 9.466 8.577 15.051 10.663 9.14 3.403 19.482 6.921 26.657-3.929 5.869-8.868 2.116-25.001-6.788-32.883-18.594-16.454-28.289-38.638-38.608-60.411-18.037-38.076-27.298-78.019-26.21-120.296 0.967-37.906 1.076-75.843 2.454-113.719 0.683-18.37-8.003-31.783-19.845-43.776-6.444-6.54-14.284-6.317-20.981 0.508-10.85 11.062-16.472 23.985-13.274 38.021zM736.31 798.253c14.828 0 28.604-0.187 42.373 0.054 13.105 0.224 24.614-2.817 30.592-15.68 6.045-13.032 2.714-24.59-8.632-34.902 10.627-6.571 15.384-15.722 14.392-27.733-1.136-13.975-10.542-25.182-24.523-25.956-17.663-0.979-35.416-0.236-54.203-0.236 0 34.576 0 68.632 0 104.453zM757.678 713.409c8.408 0 16.75-1.227 24.427 0.514 3.887 0.883 9.128 7.175 9.055 10.923-0.085 3.82-5.41 9.871-9.387 10.772-7.616 1.729-15.916 0.502-24.094 0.502 0-8.209 0-14.834 0-22.71zM758.011 756.889c7.888 0 15.208-1.348 21.616 0.502 3.941 1.136 8.511 6.951 8.946 11.074 0.308 2.932-5.35 8.487-9.164 9.412-6.552 1.572-13.74 0.435-21.404 0.435 0.006-7.181 0.006-13.637 0.006-21.422zM875.931 745.754c-3.494 9.393-17.366 13.691-24.33 5.712-7.641-8.747-14.157-4.878-22.867-2.69 1.016 3.5 1.372 6.613 2.75 9.182 7.060 13.153 27.721 19.041 47.838 13.873 13.153-3.385 18.158-11.279 18.231-29.057 0.060-15.74 0.012-31.481 0.012-49.863-7.072 1.203-14.441 2.46-20.093 3.421-11.769-1.124-22.795-3.893-33.385-2.702-10.699 1.197-16.599 9.938-17.415 21.011-0.816 11.116 3.953 19.972 14.247 23.447 11.032 3.73 22.873 5.12 35.011 7.665zM875.859 730.413c-7.925-1.868-15.468-3.149-22.595-5.628-2.146-0.75-4.83-5.325-4.262-7.266 0.804-2.744 4.050-5.863 6.885-6.716 10.995-3.319 19.488 4.364 19.972 19.609zM1077.728 694.997c-20.945-3.518-20.909-3.5-28.712 12.549-3.246 6.667-6.679 13.232-10.191 20.147-14-7.175-16.164-18.98-14.592-33.222-6.577 0-12.241 0-18.986 0 0 33.742 0 67.822 0 102.869 5.646 0 11.298 0 18.479 0 0-18.007 0-35.9 0-55.249 18.406 8.97 23.647 37.399 51.688 27.745-3.639-4.497-6.184-9.406-10.203-12.307-11.769-8.481-11.098-17.469-4.122-28.857 6.274-10.246 10.766-21.592 16.641-33.675zM938.113 693.915c-7.828 0-13.625 0-20.425 0 0 25.551 0 50.576 0 78.352 7.369-1.203 14.38-2.345 24.566-4.008 6.033 5.356 16.635 7.399 28.096 1.62 11.793-5.942 12.833-17.010 12.881-28.374 0.073-15.341 0.024-30.683 0.024-45.752-19.089-5.857-21.38-4.249-21.392 14.199-0.012 9.865 0.883 19.851-0.411 29.541-0.647 4.787-5.337 9.037-8.203 13.528-4.57-3.603-11.382-6.335-13.202-11.007-2.575-6.631-1.662-14.683-1.892-22.136-0.224-8.203-0.042-16.411-0.042-25.962z" />
<glyph unicode="&#xe930;" glyph-name="jining" d="M0.413 357.996c0 94.872-1.335 177.821 1.248 260.64 0.458 14.594 15.146 30.837 26.953 42.627 69.044 68.964 139.080 136.926 208.969 205.048 88.321 86.098 193.258 113.198 310.774 79.197 120.066-34.733 201.727-114.518 229.969-236.41 17.274-74.529 17.205-153.066 20.236-230.954-28.070 139.46-109.323 226.777-245.97 261.571-79.699 20.289-149.874 2.321-209.723-55.768-99.69-96.726-200.15-192.644-300.402-288.79-10.407-9.961-21.582-19.113-42.056-37.159l0.002-0.002zM1023.579 558.848c0-88.315 1.126-165.754-0.95-243.113-0.413-15.139-9.865-33.203-20.816-44.369-71.701-73.094-144.847-144.795-217.74-216.721-170.902-168.627-455.734-105.728-539.989 119.141-31.051 82.887-41.238 209.804-22.042 274.663 42.020-167.431 130.341-253.897 283.926-273.675 69.754-8.977 132.294 7.479 184.468 59.902 96.982 97.465 196.169 192.741 294.539 288.834 10.144 9.908 20.924 19.192 38.602 35.338l0.002-0.001zM500.051 360.763c-29.747 31.392-64.559 68.128-99.33 104.847 36.869 36.016 73.709 72.052 111.276 108.795 32.862-34.181 68.796-71.549 104.532-108.718-34.909-31.453-73.386-66.116-116.479-104.927l0.001 0.002z" />
<glyph unicode="&#xe931;" glyph-name="longjiang" horiz-adv-x="970" d="M784.007 231.747c-73.922 0-146.211 0-219.3 0 0 126.941 0 249.794 0 376.973 56.762 0 111.642 0.015 166.521-0.005 62.735-0.020 62.735-0.041 51.559 71.080-256.844 0-514.462 0-777.355 0 11.62 55.479 20.679 105.945 33.786 155.325 2.679 10.089 19.614 18.606 31.734 23.294 10.323 3.99 23.506 3.37 34.85 1.424 52.193-8.947 92.676 12.704 131.065 44.876 11.232 9.412 28.661 14.376 43.726 15.638 30.351 2.538 61.077 2.285 91.562 1.051 34.039-1.367 64.722 4.362 92.282 26.452 9.157 7.339 23.506 11.307 35.541 11.457 78.66 0.987 157.335 0.508 245.169 0.508-34.519-29.93-63.404-54.992-92.31-80.048 0.782-3.469 1.566-6.945 2.348-10.419 31.895 0 63.791-0.367 95.68 0.084 48.578 0.698 93.134-12.338 132.174-40.884 118.805-86.888 114.857-280.193-6.9-363.241-42.181-28.779-40.984-47.716 1.26-77.461 79.301-55.83 97.915-137.198 88.080-227.176-12.415-113.461-95.122-185.479-209.981-185.621-238.485-0.31-476.982 0.446-715.468-0.762-29.456-0.149-40.969 10.096-39.798 37.599 0.937 22.181-0.446 45.073 4.682 66.322 14.762 61.183 41.992 81.493 104.436 81.538 206.772 0.149 413.537 0.070 620.316 0.050 61.783 0.005 61.783-0.036 54.343 71.948l-0.002-0.006zM14.076 467.417c0 43.21 0.367 81.728-0.133 120.229-0.31 24.379 16.879 20.968 31.74 20.988 103.358 0.14 206.708 0.078 310.065 0.084 40.871 0 81.741 0 125.010 0 0-126.504 0-249.255 0-375.034-154.431 0-308.685 0-464.87 0 0 53.47 0 104.718 0 162.234 18.255 0 36.393 0 54.521 0 69.298 0 138.623 1.178 207.872-0.564 28.442-0.712 38.381 6.979 38.918 37.064 0.579 32.757-14.24 35.76-40.448 35.415-85.626-1.114-171.287-0.415-262.674-0.415v-0.002z" />
<glyph unicode="&#xe932;" glyph-name="zjmtsy" d="M995.59 258.151c-84.293-160.747-207.292-270.659-395.524-284.756-202.936-15.195-368.194 54.524-474.503 235.502-94.311 160.543-88.423 322.427 1.626 483.463-35.231-245.805 44.303-441.491 270.339-551.39 221.707-107.805 422.828-46.844 598.062 117.182zM907.69 370.062c22.134 181.276-51.522 310.222-208.664 385.165-154.595 73.73-299.59 44.651-428.598-68.107 9.726 88.306 121.103 189.089 238.171 216.505 160.522 37.598 321.203-22.927 401.853-151.367 77.239-122.995 77.624-280.989-2.762-382.196zM687.719 454.028c-46.251-49.479-95.558-102.225-143.32-153.314-53.002 52.699-103.996 103.404-153.899 153.026 48.198 49.357 98.486 100.857 147.899 151.456 51.044-51.68 102.382-103.651 149.32-151.169z" />
<glyph unicode="&#xe933;" glyph-name="dezhou" horiz-adv-x="1252" d="M1201.405 753.651c33.1-40.192 45.755-81.223 49.098-125.461 7.019-92.938-22.833-176.672-68.276-255.35-89.162-154.395-208.3-281.861-355.737-381.607-90.418-61.153-176.403-58.778-259.31 12.517-56.823 48.84-104.779 108.283-155.179 164.338-77.683 86.361-156.067 172.243-230.227 261.582-39.856 48.003-85.644 59.408-142.465 45.66-12.059-2.912-24.284-5.133-39.142-8.245 59.057 75.227 145.925 87.836 220.592 37.765 145.661-97.677 292.512-193.576 438.597-290.603 26.615-17.694 55.349-21.91 82.835-8.528 164.671 80.127 317.356 175.978 414.198 338.653 33.972 57.049 48.253 120.381 43.616 187.313-0.366 5.119 0.603 10.343 1.399 21.966h0.001zM58.606 688.459c86.93 44.319 167.233 88.449 250.19 126.864 152.297 70.554 309.204 128.219 478.337 141.863 115.288 9.309 225.184-5.46 316.284-87.021 11.152-9.987 25.007-16.983 37.602-25.353-3.003-3.037-5.98-6.065-8.979-9.096-40.416 9.972-80.313 23.977-121.338 29.163-126.472 15.983-243.994-18.791-357.196-71.243-124.217-57.557-235.445-135.424-338.987-224.093-24.1-20.634-40.091-20.551-65.48-3.252-52.74 35.928-108.236 67.791-162.459 101.523-7.452 4.64-14.19 10.409-27.973 20.644h-0.001zM958.023 506.277c-81.89-57.517-159.377-112.292-237.488-166.145-6.075-4.185-19.108-5.701-24.726-2.034-83.325 54.254-165.941 109.593-253.812 168.058 87.879 54.18 170.471 105.372 253.564 155.714 5.536 3.355 16.856 3.249 22.303-0.226 79.011-50.409 157.481-101.659 240.158-155.366h0.001z" />
<glyph unicode="&#xe934;" glyph-name="jincheng" horiz-adv-x="970" d="M42.277-12.362c235.338 235.053 465.451 464.9 697.256 696.44 64.149-68.359 132.57-141.264 211.104-224.94-22.914-19.697-55.738-44.746-84.871-73.542-123.039-121.566-244.626-244.615-367.759-366.077-14.154-13.963-34.572-30.147-52.374-30.506-132.855-2.56-265.784-1.376-403.355-1.376zM444.775 469.59c-72.737-71.256-143.041-140.545-214.087-209.094-6.981-6.748-18.364-12.397-27.81-12.546-66.125-1.079-132.283-0.57-201.392-0.57 0 155.164 0 305.378 0 462.192 65.152 0 129.28 0.55 193.364-0.571 9.478-0.169 21.008-6.051 27.863-12.947 72.038-72.59 143.337-145.919 222.062-226.464zM701.534 727.428c-67.934-66.665-132.61-131.659-199.678-194.092-8.526-7.934-36.357-9.415-43.73-2.18-139.994 137.478-278.255 276.706-429.040 427.745 38.187 0 62.010 0 85.822 0 104.578 0 209.168 0.688 313.725-0.678 18.257-0.232 41.668-3.564 53.738-14.957 73.298-69.225 144.016-141.201 219.163-215.837zM969.317 546.305c-140.672 140.862-275.082 275.446-412.040 412.585 37.416 0 79.37 0 121.324 0 79.421 0 158.992 2.538 238.162-1.872 18.208-1.015 49.771-25.387 50.249-39.848 4.052-121.98 2.305-244.156 2.305-370.864zM969.465 393.427c0-114.82 1.819-236.703-2.169-358.399-0.541-16.268-30.076-44.682-46.894-45.233-121.546-3.915-243.282-2.093-357.022-2.093 134.495 134.366 270.513 270.257 406.086 405.725zM0.842 47.638c0 48.324 0 97.576 0 149.494 52.701 0 102.949 0 147.76 0-48.259-48.83-97.47-98.611-147.76-149.494zM1.191 903.839c48.756-49.666 96.622-98.422 145.104-147.8-45.551 0-93.948 0-145.104 0 0 51.633 0 99.553 0 147.8z" />
<glyph unicode="&#xe935;" glyph-name="deyang" horiz-adv-x="1280" d="M958.168 277.985c0 120.779 0 231.483 0 353.12-65.419 0-127.827 1.783-190.084-0.641-40.208-1.575-54.003 13.951-52.964 53.375 1.957 74.302 1.705 148.72-0.19 223.034-1.052 40.503 16.147 52.979 54.792 52.351 111.281-1.832 222.641 0.372 333.923-1.577 67.259-1.194 175.507-115.907 175.6-182.427 0.241-209.942 0.408-419.895 0.435-629.837 0.025-101.586-104.783-205.954-206.849-206.121-100.403-0.166-200.832 1.194-301.196-0.69-41.449-0.77-58.943 12.181-57.267 56.274 2.892 76.431 2.227 153.090 0.232 229.586-1.035 39.388 13.32 55.259 53.003 54.054 62.551-1.897 125.2-0.499 190.568-0.499h-0.003zM558.423 630.812c-70.586 0-129.581-2.194-188.317 0.729-43.728 2.168-56.974-15.092-55.64-57.17 2.534-80.88 2.378-161.924 0.283-242.83-1.012-39.272 12.080-56.055 52.351-54.157 45.748 2.168 91.752-0.91 137.526 0.95 37.906 1.525 56.512-10.948 55.488-52.005-1.881-74.341-1.408-148.785-0.308-223.148 0.511-33.991-9.034-53.145-47.374-53.763-117.885-1.883-235.745-7.743-353.615-8.271-56.319-0.244-157.572 105.574-157.803 162.36-0.968 236.292-0.903 472.594 0.076 708.884 0.21 51.646 104.294 144.782 163.797 145.717 115.717 1.821 231.502 1.693 347.172-1.066 15.702-0.372 43.879-19.988 44.316-31.542 3.622-95.468 2.048-191.145 2.048-294.69l0.001 0.003z" />
<glyph unicode="&#xe936;" glyph-name="laishan" d="M373.586 450.39c37.687-36.537 72.404-71.318 108.505-104.597 13.034-12.018 17.105-24.551 16.972-41.763-0.737-95.693-0.346-191.392-0.341-287.091 0.001-7.511 0-15.028 0-27.826-34.106 5.519-66.338 8.153-97.184 16.142-227.559 58.921-371.666 265.076-350.11 499.186 18.729 203.387 184.086 378.93 386.093 409.508 19.139 2.898 38.559 3.923 57.838 5.939 11.253 1.173 16.177-2.837 16.138-15.008-0.32-101.939 0.119-203.877-0.694-305.81-0.065-8.234-6.053-18.089-12.196-24.336-39.803-40.486-80.414-80.176-125.017-124.345zM971.721 529.049c50.407-226.336-121.504-518.373-433.085-536.97-0.383 7.15-1.099 14.332-1.103 21.511-0.058 98.476-0.349 196.955 0.523 295.422 0.086 9.618 5.177 21.401 11.892 28.375 36.519 37.919 74.277 74.644 112.981 113.149-26.467 24.666-52.042 48.501-77.618 72.332 1.398 2.061 2.797 4.123 4.195 6.181 127.386 0 254.768 0 382.214 0zM795.597 915.254c94.833-0.544 169.059-75.49 167.711-169.631-1.251-87.556-67.18-165.782-169.41-166.862-92.887-0.975-168.193 76.647-168.177 168.476 0.017 93.977 75.421 168.562 169.878 168.017zM837.308 673.386c-26.35-11.046-35.836 2.829-42.741 22.864-9.903 28.738-20.947 57.089-31.629 85.553-13.686 36.464-23.795 41.153-60.557 30.989 12.349-24.955 25.545-50.156 37.395-75.974 11.818-25.749 20.875-52.854 33.927-77.913 6.732-12.929 19.513-22.706 29.558-33.907 10.656 12.737 21.385 25.412 31.874 38.283 1.139 1.398 0.915 3.91 2.174 10.105zM783.356 813.324c12.176-32.63 23.812-63.802 35.878-96.144 17.026 20.645 15.583 34.22-5.839 79.493-5.899 12.463-13.621 20.652-30.039 16.651zM852.414 721.991c11.465 19.17 5.37 59.103-11.444 82.374-4.077 5.645-12.743 7.98-19.3 11.83-0.789-1.488-1.578-2.98-2.367-4.47 10.684-28.947 21.364-57.892 33.111-89.733zM852.935 814.091c5.422-14.833 9.986-27.323 14.548-39.815 1.484 0.007 2.963 0.013 4.442 0.015 4.164 12.611 8.327 25.222 13.139 39.801-11.622 0-20.34 0-32.13 0z" />
<glyph unicode="&#xe937;" glyph-name="zjksy" d="M996.482 454.413c-32.788 0-62.599 0-95.61 0-12.089 117.61-59.87 215.974-153.636 288.704-75.611 58.651-162.087 82.863-257.355 79.634-151.467-5.133-312.161-128.652-338.467-266.164 50.991 0 101.103-0.962 151.083 1.172 6.497 0.29 16.823 16.222 17.591 25.555 2.333 28.3 0.844 56.921 0.844 88.519 129.582 0 254.721 0 382.74 0 0-69.377 0-137.232 0-208.153-29.411 0-58.606 0-93.321 0 0 26.756-1.018 52.437 0.298 77.988 1.232 23.978-6.4 34.836-32.39 34.112-53.058-1.493-106.19-0.45-164.461-0.45 0-42.158 0-79.74 0-121.995-97.607 0-190.074 0-281.33 0-35.492-157.889 117.097-355.481 297.697-395.099 212.564-46.64 406.778 101.325 441.828 252.356-53.152 0-105.742 0-163.069 0 0-37.76 0-74.041 0-112.939-14.741-1.941-25.182-4.48-35.635-4.512-106.895-0.273-213.801 0.561-320.681-0.61-26.367-0.291-36.627 6.999-35.785 34.738 1.788 58.732 0.546 117.559 0.546 179.795 31.109 0 60.27 0 94.467 0 0-35.721 0-71.887 0-110.624 67.284 0 129.705 0 197.738 0 0 37.387 0 74.855 0 115.634 133.362 0 261.145 0 388.944 0-0.894-252.243-232.325-470.469-490.463-465.557-271.617 5.172-491.952 232.057-486.079 492.282 6.596 292.229 248.35 500.186 516.322 485.982 292.199-15.491 469.219-271.621 458.181-470.37z" />
<glyph unicode="&#xe938;" glyph-name="pzhsy" d="M748.3 414.366c133.897 47.963 119.127 174.825 67.152 244.799-74.925 100.855-179.004 126.118-297.956 102.813-172.798-33.847-281.788-178.681-277.446-340.041 4.47-166.271 129.606-298.85 282.252-323.342 148.567-23.833 266.649 28.389 362.59 139.698 50.671 58.784 82.759 126.059 94.093 203.094 1.156 7.882 4.741 15.408 10.422 22.625 9.599-51.057 10.129-101.716-4.020-151.605-15.571-54.915-44.619-101.852-83.213-144.361-32.317-35.599-57.965-77.2-89.713-113.385-62.642-71.396-139.199-106.884-237.316-91.391-66.015 10.421-133.205 18.98-199.828 18.65-103.053-0.497-163.724 49.243-205.789 139.22-39.391 84.267-88.556 163.952-133.023 245.867-4.479 8.237-9.627 18.297-8.755 26.934 15.57 154.117 63.172 295.107 179.825 403.329 170.231 157.925 422.601 191.851 610.134 46.932 111.36-86.054 154.35-216.547 102.097-339.299-27.75-65.18-93.492-101.173-171.504-90.539zM597.457 526.697c-32.684-34.486-61.17-64.541-98.009-103.421 26.244-22.698 51.836-46.678 79.73-67.585 6.667-4.999 27.168-3.959 30.896 1.46 34.288 49.883 75.577 48.901 123.405 22.477 18.134-10.027 37.873-17.89 57.745-23.858 23.917-7.19 25.644-18.858 14.354-38.879-48.518-86.035-123.12-125.975-220.346-123.74-94.357 2.17-164.003 47.718-205.459 131.241-55.517 111.866-16.487 247.086 85.887 310.386 106.116 65.62 243.849 40.23 322.604-59.463 1.357-1.725 3.012-3.308 3.98-5.233 23.329-46.213 40.237-48.791-21.493-70.538-21.722-7.65-42.764-17.451-63.534-27.49-28.659-13.846-54.166-16.475-75.169 13.374-9.436 13.404-21.058 25.266-34.593 41.269z" />
<glyph unicode="&#xe939;" glyph-name="cangzhou" horiz-adv-x="970" d="M597.825 364.579c9.53 42.089 18.883 83.386 28.242 124.693-5.243 1.784-10.487 3.561-15.73 5.346-7.944-14.063-15.904-28.119-23.833-42.198-54.727-97.167-140.28-143.755-235.127-128.743-85.121 13.47-138.287 65.658-163.288 144.047-38.285 120.042-16.862 230.213 74.646 319.988 112.53 110.392 241.893 183.9 407.32 169.915 114.070-9.641 200.233-61.656 246.89-167.666 44.56-101.248 14.57-191.947-49.838-274.953-7.283-9.39-14.868-18.55-20.158-25.127 19.463-21.107 38.577-39.822 55.4-60.417 66.868-81.815 85.702-174.377 46.551-272.371-39.847-99.749-121.23-153.58-225.235-167.769-63.672-8.686-128.92-7.432-193.475-7.771-174.978-0.923-349.963-0.316-528.566-0.316 0 91.534 0 180.718 0 273.137 116.225-128.601 254.63-198.225 430.464-159.097 112.638 25.073 204.739 83.19 263.998 187.074-27.038-23.507-54.075-47.024-82.687-71.905 32.755 52.298 63.86 101.95 94.965 151.613-4.148 2.999-8.291 6.007-12.439 9.010-44.27-66.813-89.368-132.797-166.788-168.915 104.373 90.415 183.75 189.942 126.647 341.744-14.917-63.267-13.204-130.916-57.957-179.321zM0.895 939.884c108.035 0 212.569 0 317.106 0-145.574-70.547-244.651-185.314-317.106-340.116 0 119.3 0 227.434 0 340.116z" />
</font>
</defs>
</svg>
